<?xml version="1.0" encoding="UTF-8" standalone="no"?>
<!DOCTYPE svg PUBLIC "-//W3C//DTD SVG 1.1//EN" "http://www.w3.org/Graphics/SVG/1.1/DTD/svg11.dtd">
<svg width="100%" height="100%" viewBox="0 0 135 145" version="1.1" xmlns="http://www.w3.org/2000/svg" xmlns:xlink="http://www.w3.org/1999/xlink" xml:space="preserve" xmlns:serif="http://www.serif.com/" style="fill-rule:evenodd;clip-rule:evenodd;stroke-linejoin:round;stroke-miterlimit:2;">
    <g transform="matrix(1,0,0,1,-222,-266)">
        <g id="Mesa-de-trabajo4" serif:id="Mesa de trabajo4" transform="matrix(1,0,0,0.935027,-0.234416,16.347861)">
            <rect x="222.234" y="267" width="134.148" height="154.731" style="fill:none;"/>
            <g transform="matrix(1.955444,0,0,2.091324,276.032683,413.155601)">
                <path d="M0,-7.01L-0.05,-6.92L-4.48,1.86L-4.49,1.86C-4.6,2.12 -4.76,2.36 -4.96,2.57C-5.84,3.45 -7.26,3.45 -8.14,2.57C-8.8,1.9 -8.96,0.92 -8.62,0.11L-8.53,-0.06L-6.83,-3.46L-9.48,-6.12L-13.51,1.86L-13.52,1.86C-13.63,2.12 -13.79,2.36 -13.99,2.57C-14.87,3.45 -16.29,3.45 -17.17,2.57C-17.83,1.9 -17.99,0.92 -17.65,0.11L-17.56,-0.06L-15.86,-3.47L-18.5,-6.12L-22.53,1.86L-22.54,1.86C-22.65,2.12 -22.81,2.36 -23.01,2.57C-23.89,3.45 -25.31,3.45 -26.19,2.57C-26.85,1.9 -27.01,0.92 -26.67,0.11L-26.58,-0.06L-22.21,-8.82L-22.14,-8.97C-22.04,-9.19 -21.89,-9.4 -21.71,-9.58C-20.82,-10.46 -19.39,-10.46 -18.5,-9.58C-17.81,-8.88 -17.66,-7.85 -18.05,-7.01L-18.1,-6.92L-18.26,-6.59L-15.62,-3.94L-13.19,-8.82L-13.12,-8.97C-13.02,-9.19 -12.87,-9.4 -12.69,-9.58C-11.8,-10.46 -10.37,-10.46 -9.48,-9.58C-8.79,-8.88 -8.64,-7.85 -9.03,-7.01L-9.08,-6.92L-9.25,-6.59L-6.6,-3.93L-4.16,-8.82L-4.09,-8.97C-3.99,-9.19 -3.84,-9.4 -3.66,-9.58C-2.77,-10.46 -1.34,-10.46 -0.45,-9.58C0.24,-8.88 0.39,-7.85 0,-7.01" style="fill:rgb(17,24,38);fill-rule:nonzero;"/>
            </g>
            <g transform="matrix(1.955444,0,0,2.091324,336.951984,268.846949)">
                <path d="M0,72.555C-1.05,72.555 -2.1,72.346 -3.098,71.927C-5.045,71.109 -6.562,69.589 -7.378,67.643L-32.659,11.675L-45.852,38.066L-35.973,38.057L-35.97,38.057C-34.038,38.057 -32.471,39.621 -32.47,41.554C-32.468,43.487 -34.034,45.055 -35.967,45.057L-51.514,45.071L-51.517,45.071C-52.729,45.071 -53.855,44.444 -54.493,43.412C-55.131,42.38 -55.19,41.091 -54.647,40.005L-35.63,1.962C-35.026,0.753 -33.792,0 -32.43,0.027C-31.08,0.054 -29.865,0.855 -29.31,2.086L-0.976,64.812C-0.958,64.85 -0.94,64.89 -0.925,64.929C-0.717,65.44 -0.13,65.686 0.379,65.477C0.89,65.269 1.135,64.684 0.927,64.173L-4.659,51.979C-5.396,50.192 -4.545,48.145 -2.759,47.408C-0.969,46.675 1.074,47.521 1.812,49.307L7.402,61.514C9.075,65.611 7.109,70.29 3.025,71.957C2.049,72.356 1.024,72.555 0,72.555" style="fill:rgb(17,24,38);fill-rule:nonzero;"/>
            </g>
        </g>
    </g>
</svg>
