<?xml version="1.0" encoding="UTF-8" standalone="no"?>
<!DOCTYPE svg PUBLIC "-//W3C//DTD SVG 1.1//EN" "http://www.w3.org/Graphics/SVG/1.1/DTD/svg11.dtd">
<svg width="100%" height="100%" viewBox="0 0 527 230" version="1.1" xmlns="http://www.w3.org/2000/svg" xmlns:xlink="http://www.w3.org/1999/xlink" xml:space="preserve" xmlns:serif="http://www.serif.com/" style="fill-rule:evenodd;clip-rule:evenodd;stroke-linejoin:round;stroke-miterlimit:2;">
    <g id="Mesa-de-trabajo1" serif:id="Mesa de trabajo1" transform="matrix(0.479976,0,0,0.429923,0,-511.313581)">
        <rect x="0" y="1189.316" width="1096.093" height="533.542" style="fill:none;"/>
        <clipPath id="_clip1">
            <rect x="0" y="1189.316" width="1096.093" height="533.542"/>
        </clipPath>
        <g clip-path="url(#_clip1)">
            <g transform="matrix(5.454283,0,0,6.08929,148.032327,1609.337868)">
                <path d="M0,-7.01L-0.05,-6.92L-4.48,1.86L-4.49,1.86C-4.6,2.12 -4.76,2.36 -4.96,2.57C-5.84,3.45 -7.26,3.45 -8.14,2.57C-8.8,1.9 -8.96,0.92 -8.62,0.11L-8.53,-0.06L-6.83,-3.46L-9.48,-6.12L-13.51,1.86L-13.52,1.86C-13.63,2.12 -13.79,2.36 -13.99,2.57C-14.87,3.45 -16.29,3.45 -17.17,2.57C-17.83,1.9 -17.99,0.92 -17.65,0.11L-17.56,-0.06L-15.86,-3.47L-18.5,-6.12L-22.53,1.86L-22.54,1.86C-22.65,2.12 -22.81,2.36 -23.01,2.57C-23.89,3.45 -25.31,3.45 -26.19,2.57C-26.85,1.9 -27.01,0.92 -26.67,0.11L-26.58,-0.06L-22.21,-8.82L-22.14,-8.97C-22.04,-9.19 -21.89,-9.4 -21.71,-9.58C-20.82,-10.46 -19.39,-10.46 -18.5,-9.58C-17.81,-8.88 -17.66,-7.85 -18.05,-7.01L-18.1,-6.92L-18.26,-6.59L-15.62,-3.94L-13.19,-8.82L-13.12,-8.97C-13.02,-9.19 -12.87,-9.4 -12.69,-9.58C-11.8,-10.46 -10.37,-10.46 -9.48,-9.58C-8.79,-8.88 -8.64,-7.85 -9.03,-7.01L-9.08,-6.92L-9.25,-6.59L-6.6,-3.93L-4.16,-8.82L-4.09,-8.97C-3.99,-9.19 -3.84,-9.4 -3.66,-9.58C-2.77,-10.46 -1.34,-10.46 -0.45,-9.58C0.24,-8.88 0.39,-7.85 0,-7.01" style="fill:rgb(244,234,220);fill-rule:nonzero;"/>
            </g>
            <g transform="matrix(5.454283,0,0,6.08929,317.953421,1189.155567)">
                <path d="M0,72.555C-1.05,72.555 -2.1,72.346 -3.098,71.927C-5.045,71.109 -6.562,69.589 -7.378,67.643L-32.659,11.675L-45.852,38.066L-35.973,38.057L-35.97,38.057C-34.038,38.057 -32.471,39.621 -32.47,41.554C-32.468,43.487 -34.034,45.055 -35.967,45.057L-51.514,45.071L-51.517,45.071C-52.729,45.071 -53.855,44.444 -54.493,43.412C-55.131,42.38 -55.19,41.091 -54.647,40.005L-35.63,1.962C-35.026,0.753 -33.792,0 -32.43,0.027C-31.08,0.054 -29.865,0.855 -29.31,2.086L-0.976,64.812C-0.958,64.85 -0.94,64.89 -0.925,64.929C-0.717,65.44 -0.13,65.686 0.379,65.477C0.89,65.269 1.135,64.684 0.927,64.173L-4.659,51.979C-5.396,50.192 -4.545,48.145 -2.759,47.408C-0.969,46.675 1.074,47.521 1.812,49.307L7.402,61.514C9.075,65.611 7.109,70.29 3.025,71.957C2.049,72.356 1.024,72.555 0,72.555" style="fill:rgb(244,234,220);fill-rule:nonzero;"/>
            </g>
            <g transform="matrix(5.454283,0,0,6.08929,-1816.890236,-423.323659)">
                <path d="M403.238,336.795L403.238,335.255L405.526,335.101L405.988,335.101L408.056,335.255L408.056,336.795L403.238,336.795ZM404.25,336.795L409.222,322.451L412.566,322.451L417.604,336.795L412.918,336.795L409.244,325.157L409.31,325.157L408.892,327.423L405.966,336.795L404.25,336.795ZM406.67,332.923L406.67,331.427L413.776,331.427L413.776,332.923L406.67,332.923ZM410.806,336.795L410.806,335.299L413.314,335.123L415.624,335.123L418.374,335.299L418.374,336.795L410.806,336.795Z" style="fill:rgb(244,234,220);fill-rule:nonzero;"/>
                <path d="M419.234,336.795L419.234,335.387L421.39,335.167L423.634,335.167L425.922,335.409L425.922,336.795L419.234,336.795ZM420.378,336.795C420.378,336.267 420.381,335.739 420.389,335.211C420.396,334.683 420.4,334.155 420.4,333.627L420.4,323.419L419.102,323.089L419.102,321.945L423.898,321.043L424.778,321.175L424.734,324.277L424.734,332.065C424.734,332.579 424.737,333.099 424.745,333.627C424.752,334.155 424.756,334.683 424.756,335.211C424.756,335.739 424.763,336.267 424.778,336.795L420.378,336.795Z" style="fill:rgb(244,234,220);fill-rule:nonzero;"/>
                <path d="M427.045,336.795L427.045,335.387L429.179,335.167L431.445,335.167L433.425,335.387L433.425,336.795L427.045,336.795ZM428.189,336.795C428.189,336.355 428.193,335.864 428.2,335.321C428.207,334.779 428.211,334.221 428.211,333.649L428.211,329.128C428.211,328.886 428.204,328.626 428.189,328.347L426.891,328.237L426.891,327.005L431.291,325.575L432.105,325.707L432.369,328.039L432.545,328.061L432.545,332.065C432.545,332.549 432.549,333.077 432.556,333.649C432.563,334.221 432.567,334.779 432.567,335.321C432.567,335.864 432.574,336.355 432.589,336.795L428.189,336.795ZM434.239,336.795L434.239,335.387L436.087,335.167L438.375,335.167L440.333,335.387L440.333,336.795L434.239,336.795ZM435.141,336.795C435.141,336.355 435.145,335.864 435.152,335.321C435.159,334.779 435.163,334.225 435.163,333.66L435.163,329.843C435.163,329.242 435.075,328.813 434.899,328.556C434.723,328.3 434.408,328.171 433.953,328.171C433.689,328.171 433.418,328.23 433.139,328.347C432.86,328.465 432.589,328.619 432.325,328.809C432.061,329 431.819,329.205 431.599,329.425L431.599,327.885L432.413,327.885C432.736,327.416 433.069,326.994 433.414,326.62C433.759,326.246 434.147,325.949 434.58,325.729C435.013,325.509 435.522,325.399 436.109,325.399C437.194,325.399 438.023,325.718 438.595,326.356C439.167,326.994 439.453,327.937 439.453,329.183L439.453,332.065C439.453,332.564 439.457,333.096 439.464,333.66C439.471,334.225 439.475,334.779 439.475,335.321C439.475,335.864 439.482,336.355 439.497,336.795L435.141,336.795ZM441.191,336.795L441.191,335.387L442.951,335.167L445.283,335.167L447.483,335.387L447.483,336.795L441.191,336.795ZM442.027,336.795C442.027,336.355 442.031,335.864 442.038,335.321C442.045,334.779 442.049,334.225 442.049,333.66L442.049,329.843C442.049,329.213 441.957,328.776 441.774,328.534C441.591,328.292 441.286,328.171 440.861,328.171C440.582,328.171 440.311,328.223 440.047,328.325C439.783,328.428 439.519,328.571 439.255,328.754C438.991,328.938 438.727,329.161 438.463,329.425L438.463,327.885L439.277,327.885C439.644,327.372 440.003,326.932 440.355,326.565C440.707,326.199 441.092,325.913 441.51,325.707C441.928,325.502 442.416,325.399 442.973,325.399C444.117,325.399 444.964,325.729 445.514,326.389C446.064,327.049 446.339,328.017 446.339,329.293L446.339,332.065C446.339,332.564 446.343,333.096 446.35,333.66C446.357,334.225 446.361,334.779 446.361,335.321C446.361,335.864 446.368,336.355 446.383,336.795L442.027,336.795Z" style="fill:rgb(244,234,220);fill-rule:nonzero;"/>
                <path d="M451.4,337.147C450.506,337.147 449.787,336.883 449.244,336.355C448.702,335.827 448.43,335.131 448.43,334.265C448.43,333.679 448.57,333.158 448.848,332.703C449.127,332.249 449.596,331.838 450.256,331.471C450.916,331.105 451.818,330.782 452.962,330.503C453.329,330.415 453.688,330.331 454.04,330.25C454.392,330.17 454.748,330.085 455.107,329.997C455.467,329.909 455.822,329.821 456.174,329.733L456.174,330.723C455.793,330.841 455.39,330.958 454.964,331.075C454.539,331.193 454.143,331.31 453.776,331.427C453.454,331.515 453.182,331.655 452.962,331.845C452.742,332.036 452.581,332.263 452.478,332.527C452.376,332.791 452.324,333.077 452.324,333.385C452.324,333.84 452.456,334.188 452.72,334.43C452.984,334.672 453.336,334.793 453.776,334.793C453.982,334.793 454.18,334.771 454.37,334.727C454.561,334.683 454.763,334.617 454.975,334.529C455.188,334.441 455.412,334.324 455.646,334.177L455.756,335.299L454.678,335.299C454.429,335.622 454.165,335.923 453.886,336.201C453.608,336.48 453.274,336.707 452.885,336.883C452.497,337.059 452.002,337.147 451.4,337.147ZM457.736,337.147C456.871,337.147 456.211,336.953 455.756,336.564C455.302,336.176 455.001,335.651 454.854,334.991L454.722,334.947L454.722,328.941C454.722,328.399 454.664,327.966 454.546,327.643C454.429,327.321 454.242,327.09 453.985,326.95C453.729,326.811 453.388,326.741 452.962,326.741C452.64,326.741 452.324,326.771 452.016,326.829C451.708,326.888 451.378,326.969 451.026,327.071L452.39,325.949L452.39,327.511C452.39,328.406 452.207,329.04 451.84,329.414C451.474,329.788 451.056,329.975 450.586,329.975C450.117,329.975 449.736,329.869 449.442,329.656C449.149,329.444 448.944,329.11 448.826,328.655C448.9,327.643 449.402,326.848 450.333,326.268C451.265,325.689 452.559,325.399 454.216,325.399C455.331,325.399 456.237,325.55 456.933,325.85C457.63,326.151 458.147,326.613 458.484,327.236C458.822,327.86 458.99,328.648 458.99,329.601L458.99,334.419C458.99,334.566 459.031,334.683 459.111,334.771C459.192,334.859 459.313,334.903 459.474,334.903C459.592,334.903 459.713,334.885 459.837,334.848C459.962,334.812 460.098,334.742 460.244,334.639L460.684,335.497C460.42,336.025 460.039,336.432 459.54,336.718C459.042,337.004 458.44,337.147 457.736,337.147Z" style="fill:rgb(244,234,220);fill-rule:nonzero;"/>
                <path d="M461.372,337.081L461.658,335.585L464.562,335.431L465.046,335.431L464.892,337.081L461.372,337.081ZM463.044,337.081L464.496,329.271C464.701,328.186 464.903,327.097 465.101,326.004C465.299,324.912 465.493,323.823 465.684,322.737L469.82,322.737L468.346,330.525C468.14,331.625 467.939,332.722 467.741,333.814C467.543,334.907 467.348,335.996 467.158,337.081L463.044,337.081ZM463.704,324.211L463.99,322.737L467.268,322.737L467.092,324.387L466.806,324.387L463.704,324.211ZM465.53,337.081L465.662,335.629L468.06,335.629C468.852,335.629 469.567,335.453 470.205,335.101C470.843,334.749 471.393,334.254 471.855,333.616C472.317,332.978 472.669,332.234 472.911,331.383C473.153,330.533 473.274,329.616 473.274,328.633C473.274,327.152 472.98,326.041 472.394,325.3C471.807,324.56 470.868,324.189 469.578,324.189L467.994,324.189L468.126,322.737L470.194,322.737C471.778,322.737 473.109,323.001 474.187,323.529C475.265,324.057 476.079,324.787 476.629,325.718C477.179,326.65 477.454,327.709 477.454,328.897C477.454,330.085 477.237,331.182 476.805,332.186C476.372,333.191 475.756,334.056 474.957,334.782C474.157,335.508 473.204,336.073 472.097,336.476C470.989,336.88 469.761,337.081 468.412,337.081L465.53,337.081Z" style="fill:rgb(249,115,22);fill-rule:nonzero;"/>
                <path d="M482.822,337.433C481.884,337.433 481.081,337.257 480.413,336.905C479.746,336.553 479.24,336.047 478.895,335.387C478.551,334.727 478.378,333.957 478.378,333.077C478.378,332.109 478.547,331.182 478.884,330.294C479.222,329.407 479.698,328.619 480.314,327.929C480.93,327.24 481.664,326.694 482.514,326.29C483.365,325.887 484.311,325.685 485.352,325.685C486.467,325.685 487.336,325.916 487.959,326.378C488.583,326.84 488.894,327.453 488.894,328.215C488.894,328.802 488.711,329.348 488.344,329.854C487.978,330.36 487.439,330.822 486.727,331.24C486.016,331.658 485.14,332.021 484.098,332.329C483.057,332.637 481.854,332.901 480.49,333.121L480.468,332.285C481.876,331.948 482.962,331.537 483.724,331.053C484.487,330.569 485.019,330.06 485.319,329.524C485.62,328.989 485.77,328.487 485.77,328.017C485.77,327.724 485.704,327.497 485.572,327.335C485.44,327.174 485.264,327.093 485.044,327.093C484.722,327.093 484.399,327.236 484.076,327.522C483.754,327.808 483.453,328.193 483.174,328.677C482.896,329.161 482.676,329.711 482.514,330.327C482.353,330.943 482.272,331.581 482.272,332.241C482.272,333.136 482.467,333.789 482.855,334.199C483.244,334.61 483.776,334.815 484.45,334.815C484.846,334.815 485.209,334.746 485.539,334.606C485.869,334.467 486.185,334.265 486.485,334.001C486.786,333.737 487.076,333.437 487.354,333.099L488.344,333.803C488.124,334.185 487.846,334.588 487.508,335.013C487.171,335.439 486.779,335.835 486.331,336.201C485.884,336.568 485.371,336.865 484.791,337.092C484.212,337.32 483.556,337.433 482.822,337.433Z" style="fill:rgb(249,115,22);fill-rule:nonzero;"/>
                <path d="M492.899,337.433C492.122,337.433 491.462,337.349 490.919,337.18C490.376,337.012 489.936,336.751 489.599,336.399C489.262,336.047 489.005,335.593 488.829,335.035C488.932,334.537 489.111,334.166 489.368,333.924C489.625,333.682 489.988,333.561 490.457,333.561C490.897,333.561 491.286,333.697 491.623,333.968C491.96,334.24 492.195,334.683 492.327,335.299L492.657,336.795L491.183,336.421L493.295,336.421C493.5,336.363 493.673,336.275 493.812,336.157C493.951,336.04 494.058,335.886 494.131,335.695C494.204,335.505 494.241,335.292 494.241,335.057C494.241,334.676 494.102,334.331 493.823,334.023C493.544,333.715 493.104,333.334 492.503,332.879C492.078,332.527 491.696,332.186 491.359,331.856C491.022,331.526 490.758,331.16 490.567,330.756C490.376,330.353 490.281,329.887 490.281,329.359C490.281,328.699 490.461,328.091 490.82,327.533C491.179,326.976 491.7,326.529 492.382,326.191C493.064,325.854 493.889,325.685 494.857,325.685C495.664,325.685 496.327,325.788 496.848,325.993C497.369,326.199 497.776,326.474 498.069,326.818C498.362,327.163 498.553,327.541 498.641,327.951C498.582,328.391 498.428,328.732 498.179,328.974C497.93,329.216 497.592,329.337 497.167,329.337C496.815,329.337 496.474,329.216 496.144,328.974C495.814,328.732 495.554,328.318 495.363,327.731L494.945,326.411L496.309,326.697L494.747,326.697C494.468,326.727 494.248,326.888 494.087,327.181C493.926,327.475 493.845,327.79 493.845,328.127C493.845,328.582 494.006,328.982 494.329,329.326C494.652,329.671 495.128,330.085 495.759,330.569C496.214,330.907 496.602,331.237 496.925,331.559C497.248,331.882 497.497,332.227 497.673,332.593C497.849,332.96 497.937,333.385 497.937,333.869C497.937,334.544 497.732,335.149 497.321,335.684C496.91,336.22 496.331,336.645 495.583,336.96C494.835,337.276 493.94,337.433 492.899,337.433Z" style="fill:rgb(249,115,22);fill-rule:nonzero;"/>
                <path d="M499.808,335.497C499.808,335.087 499.855,334.658 499.951,334.21C500.046,333.763 500.123,333.378 500.182,333.055L501.304,327.819L502.184,328.545L499.588,328.303L499.808,327.115L504.648,325.729L505.77,326.015L504.098,333.495C504.054,333.715 504.013,333.917 503.977,334.1C503.94,334.284 503.922,334.449 503.922,334.595C503.922,334.757 503.955,334.881 504.021,334.969C504.087,335.057 504.193,335.101 504.34,335.101C504.53,335.101 504.714,335.006 504.89,334.815C505.066,334.625 505.3,334.317 505.594,333.891L506.496,334.441C506.158,335.013 505.777,335.527 505.352,335.981C504.926,336.436 504.442,336.792 503.9,337.048C503.357,337.305 502.756,337.433 502.096,337.433C501.289,337.433 500.706,337.257 500.347,336.905C499.987,336.553 499.808,336.084 499.808,335.497ZM504.186,324.321C503.672,324.321 503.232,324.16 502.866,323.837C502.499,323.515 502.316,323.089 502.316,322.561C502.316,321.96 502.532,321.447 502.965,321.021C503.397,320.596 503.922,320.383 504.538,320.383C505.095,320.383 505.546,320.548 505.891,320.878C506.235,321.208 506.408,321.63 506.408,322.143C506.408,322.745 506.195,323.258 505.77,323.683C505.344,324.109 504.816,324.321 504.186,324.321Z" style="fill:rgb(249,115,22);fill-rule:nonzero;"/>
                <path d="M510.566,342.185C509.51,342.185 508.601,342.086 507.838,341.888C507.076,341.69 506.493,341.415 506.089,341.063C505.686,340.711 505.484,340.293 505.484,339.809C505.484,339.384 505.638,339.01 505.946,338.687C506.254,338.365 506.698,338.09 507.277,337.862C507.857,337.635 508.542,337.463 509.334,337.345L509.664,337.609C509.386,337.8 509.155,338.024 508.971,338.28C508.788,338.537 508.696,338.841 508.696,339.193C508.696,339.663 508.968,340.037 509.51,340.315C510.053,340.594 510.772,340.733 511.666,340.733C512.312,340.733 512.851,340.671 513.283,340.546C513.716,340.422 514.046,340.246 514.273,340.018C514.501,339.791 514.614,339.531 514.614,339.237C514.614,339.032 514.556,338.856 514.438,338.709C514.321,338.563 514.149,338.449 513.921,338.368C513.694,338.288 513.412,338.233 513.074,338.203L509.598,337.895C509.51,337.895 509.422,337.888 509.334,337.873C509.246,337.859 509.158,337.844 509.07,337.829L509.136,337.411C508.462,337.353 507.948,337.162 507.596,336.839C507.244,336.517 507.068,336.099 507.068,335.585C507.068,334.94 507.31,334.412 507.794,334.001C508.278,333.591 508.953,333.253 509.818,332.989L509.928,332.461L510.654,332.769C510.434,333.019 510.288,333.224 510.214,333.385C510.141,333.547 510.104,333.715 510.104,333.891C510.104,334.097 510.189,334.273 510.357,334.419C510.526,334.566 510.816,334.654 511.226,334.683L514.416,334.947C515.252,335.021 515.938,335.189 516.473,335.453C517.009,335.717 517.401,336.058 517.65,336.476C517.9,336.894 518.024,337.367 518.024,337.895C518.024,338.57 517.834,339.171 517.452,339.699C517.071,340.227 516.539,340.678 515.857,341.052C515.175,341.426 514.383,341.709 513.481,341.899C512.579,342.09 511.608,342.185 510.566,342.185ZM511.996,333.539C511.146,333.539 510.42,333.393 509.818,333.099C509.217,332.806 508.759,332.406 508.443,331.9C508.128,331.394 507.97,330.833 507.97,330.217C507.97,329.616 508.099,329.04 508.355,328.49C508.612,327.94 508.968,327.456 509.422,327.038C509.877,326.62 510.416,326.29 511.039,326.048C511.663,325.806 512.341,325.685 513.074,325.685C513.881,325.685 514.548,325.821 515.076,326.092C515.604,326.364 516.004,326.712 516.275,327.137C516.547,327.563 516.697,328.025 516.726,328.523L516.77,328.501C516.873,327.709 517.034,327.064 517.254,326.565C517.474,326.067 517.757,325.707 518.101,325.487C518.446,325.267 518.86,325.157 519.344,325.157C519.579,325.157 519.777,325.179 519.938,325.223C520.1,325.267 520.232,325.326 520.334,325.399C520.378,325.487 520.415,325.605 520.444,325.751C520.474,325.898 520.488,326.052 520.488,326.213C520.488,326.932 520.254,327.475 519.784,327.841C519.315,328.208 518.53,328.443 517.43,328.545L517.958,327.577C517.9,327.841 517.841,328.091 517.782,328.325C517.724,328.56 517.665,328.787 517.606,329.007C517.548,329.227 517.474,329.477 517.386,329.755C517.254,330.298 517.06,330.8 516.803,331.262C516.547,331.724 516.213,332.124 515.802,332.461C515.392,332.799 514.878,333.063 514.262,333.253C513.646,333.444 512.891,333.539 511.996,333.539ZM512.766,332.395C512.898,332.395 513.041,332.351 513.195,332.263C513.349,332.175 513.492,332.029 513.624,331.823C513.756,331.618 513.863,331.317 513.943,330.921C514.024,330.525 514.064,330.027 514.064,329.425C514.064,328.604 513.951,327.966 513.723,327.511C513.496,327.057 513.192,326.829 512.81,326.829C512.605,326.829 512.422,326.899 512.26,327.038C512.099,327.178 511.96,327.372 511.842,327.621C511.725,327.871 511.637,328.175 511.578,328.534C511.52,328.894 511.49,329.293 511.49,329.733C511.49,330.144 511.531,330.555 511.611,330.965C511.692,331.376 511.824,331.717 512.007,331.988C512.191,332.26 512.444,332.395 512.766,332.395Z" style="fill:rgb(249,115,22);fill-rule:nonzero;"/>
                <path d="M521.149,337.345L520.445,337.015L522.403,327.841L523.745,328.589L520.687,328.303L520.929,327.115L525.615,325.729L526.517,326.037L526.011,329.029L526.165,329.161L525.527,332.065C525.351,332.901 525.178,333.734 525.01,334.562C524.841,335.391 524.669,336.231 524.493,337.081L521.149,337.345ZM529.751,337.433C528.944,337.433 528.365,337.257 528.013,336.905C527.661,336.553 527.485,336.084 527.485,335.497C527.485,335.087 527.529,334.68 527.617,334.276C527.705,333.873 527.793,333.51 527.881,333.187L528.519,330.569C528.607,330.217 528.673,329.928 528.717,329.7C528.761,329.473 528.783,329.279 528.783,329.117C528.783,328.912 528.72,328.751 528.596,328.633C528.471,328.516 528.299,328.457 528.079,328.457C527.844,328.457 527.602,328.505 527.353,328.6C527.103,328.696 526.836,328.842 526.55,329.04C526.264,329.238 525.959,329.491 525.637,329.799L525.549,328.611L526.055,328.611C526.539,327.995 527.037,327.471 527.551,327.038C528.064,326.606 528.599,326.272 529.157,326.037C529.714,325.803 530.286,325.685 530.873,325.685C531.518,325.685 532.031,325.876 532.413,326.257C532.794,326.639 532.985,327.167 532.985,327.841C532.985,328.237 532.955,328.604 532.897,328.941C532.838,329.279 532.765,329.616 532.677,329.953L531.797,333.495C531.753,333.715 531.709,333.917 531.665,334.1C531.621,334.284 531.599,334.449 531.599,334.595C531.599,334.757 531.632,334.881 531.698,334.969C531.764,335.057 531.87,335.101 532.017,335.101C532.207,335.101 532.394,335.006 532.578,334.815C532.761,334.625 532.999,334.317 533.293,333.891L534.195,334.441C533.916,334.94 533.571,335.417 533.161,335.871C532.75,336.326 532.266,336.7 531.709,336.993C531.151,337.287 530.499,337.433 529.751,337.433Z" style="fill:rgb(249,115,22);fill-rule:nonzero;"/>
            </g>
            <g transform="matrix(5.454283,0,0,6.08929,-1814.208145,-420.729621)">
                <path d="M334.123,345.495C333.919,345.778 333.814,346.007 333.807,346.182C333.801,346.357 333.873,346.485 334.025,346.568C334.176,346.65 334.38,346.698 334.637,346.711L334.588,346.909C334.311,346.895 334.072,346.887 333.871,346.884C333.67,346.881 333.481,346.879 333.303,346.879C333.151,346.879 333.026,346.881 332.927,346.884C332.828,346.887 332.726,346.895 332.621,346.909L332.66,346.711C332.779,346.678 332.889,346.625 332.992,346.553C333.094,346.48 333.209,346.371 333.338,346.227C333.466,346.082 333.613,345.894 333.777,345.663L337.9,339.86C337.985,339.867 338.073,339.87 338.162,339.87C338.251,339.87 338.331,339.867 338.404,339.86L338.799,346.078C338.819,346.315 338.88,346.479 338.982,346.568C339.084,346.657 339.185,346.704 339.284,346.711L339.244,346.909C339.079,346.895 338.86,346.887 338.587,346.884C338.313,346.881 338.055,346.879 337.811,346.879C337.514,346.879 337.234,346.881 336.97,346.884C336.707,346.887 336.493,346.895 336.328,346.909L336.367,346.711C336.684,346.698 336.909,346.64 337.045,346.538C337.18,346.436 337.237,346.217 337.218,345.881L336.98,341.333L337.316,340.977L334.123,345.495ZM335.043,344.062L337.929,344.062L337.85,344.259L334.865,344.259L335.043,344.062Z" style="fill:rgb(244,234,220);fill-rule:nonzero;"/>
                <path d="M342.2,345.861C342.141,346.098 342.114,346.276 342.121,346.395C342.127,346.513 342.183,346.592 342.289,346.632C342.394,346.671 342.559,346.698 342.783,346.711L342.744,346.909C342.553,346.895 342.31,346.887 342.017,346.884C341.724,346.881 341.429,346.879 341.132,346.879C340.816,346.879 340.521,346.881 340.248,346.884C339.974,346.887 339.752,346.895 339.58,346.909L339.63,346.711C339.847,346.698 340.017,346.671 340.139,346.632C340.261,346.592 340.358,346.513 340.43,346.395C340.503,346.276 340.569,346.098 340.628,345.861L341.933,340.958C341.999,340.714 342.025,340.534 342.012,340.419C341.999,340.303 341.941,340.224 341.839,340.182C341.737,340.139 341.574,340.114 341.35,340.107L341.399,339.91C341.557,339.916 341.775,339.923 342.052,339.929C342.328,339.936 342.628,339.939 342.951,339.939C343.248,339.939 343.539,339.936 343.826,339.929C344.113,339.923 344.362,339.916 344.572,339.91L344.523,340.107C344.299,340.114 344.124,340.139 343.999,340.182C343.874,340.224 343.777,340.303 343.707,340.419C343.638,340.534 343.571,340.714 343.505,340.958L342.2,345.861Z" style="fill:rgb(244,234,220);fill-rule:nonzero;"/>
                <path d="M346.906,341.996L346.965,341.798L350.237,341.798L350.178,341.996L346.906,341.996ZM350.514,339.356C350.408,339.356 350.313,339.374 350.227,339.41C350.141,339.447 350.062,339.494 349.99,339.554C349.904,339.633 349.827,339.743 349.757,339.885C349.688,340.027 349.624,340.195 349.565,340.389C349.505,340.584 349.446,340.799 349.387,341.037L347.35,348.629C347.074,348.635 346.82,348.648 346.589,348.668C346.359,348.688 346.134,348.721 345.917,348.767L347.766,341.887C347.911,341.327 348.077,340.864 348.265,340.498C348.453,340.132 348.675,339.844 348.932,339.633C349.123,339.481 349.336,339.368 349.57,339.292C349.804,339.216 350.056,339.178 350.326,339.178C350.741,339.178 351.062,339.264 351.29,339.435C351.517,339.607 351.631,339.837 351.631,340.127C351.631,340.259 351.593,340.392 351.517,340.528C351.441,340.663 351.336,340.773 351.201,340.859C351.066,340.944 350.906,340.987 350.721,340.987C350.53,340.987 350.377,340.941 350.262,340.849C350.146,340.757 350.089,340.625 350.089,340.453C350.089,340.236 350.156,340.041 350.291,339.87C350.426,339.699 350.613,339.57 350.85,339.485C350.817,339.452 350.772,339.422 350.716,339.396C350.66,339.369 350.593,339.356 350.514,339.356Z" style="fill:rgb(244,234,220);fill-rule:nonzero;"/>
                <path d="M353.005,341.857C352.853,341.857 352.694,341.948 352.525,342.129C352.357,342.31 352.193,342.552 352.031,342.856C351.87,343.159 351.725,343.498 351.596,343.874C351.468,344.249 351.366,344.637 351.29,345.035C351.214,345.434 351.176,345.815 351.176,346.177C351.176,346.414 351.204,346.586 351.26,346.691C351.316,346.797 351.4,346.849 351.512,346.849C351.664,346.849 351.822,346.762 351.987,346.587C352.151,346.413 352.313,346.177 352.471,345.881C352.629,345.584 352.773,345.249 352.901,344.877C353.03,344.505 353.133,344.118 353.213,343.716C353.292,343.314 353.331,342.925 353.331,342.549C353.331,342.272 353.303,342.088 353.247,341.996C353.191,341.903 353.11,341.857 353.005,341.857ZM349.851,345.416C349.851,345.113 349.893,344.79 349.975,344.447C350.057,344.104 350.184,343.768 350.356,343.439C350.527,343.109 350.74,342.811 350.993,342.544C351.247,342.277 351.547,342.063 351.893,341.902C352.239,341.74 352.626,341.659 353.054,341.659C353.562,341.659 353.956,341.798 354.236,342.075C354.516,342.351 354.656,342.757 354.656,343.291C354.656,343.594 354.615,343.917 354.532,344.259C354.45,344.602 354.323,344.938 354.152,345.268C353.98,345.597 353.768,345.895 353.514,346.162C353.26,346.429 352.96,346.643 352.614,346.805C352.268,346.966 351.881,347.047 351.453,347.047C350.945,347.047 350.552,346.909 350.272,346.632C349.992,346.355 349.851,345.95 349.851,345.416Z" style="fill:rgb(244,234,220);fill-rule:nonzero;"/>
                <path d="M356.504,346.909L355.111,346.909L356.317,342.638C356.363,342.46 356.378,342.333 356.361,342.257C356.345,342.182 356.294,342.144 356.208,342.144C356.089,342.144 355.981,342.201 355.882,342.317C355.783,342.432 355.677,342.635 355.565,342.925L355.378,343.429L355.19,343.429L355.457,342.678C355.555,342.414 355.674,342.21 355.812,342.065C355.951,341.92 356.107,341.816 356.282,341.753C356.457,341.691 356.636,341.659 356.821,341.659C357.032,341.659 357.193,341.701 357.305,341.783C357.417,341.865 357.493,341.976 357.533,342.114C357.572,342.253 357.587,342.402 357.577,342.564C357.567,342.725 357.542,342.885 357.503,343.043L356.504,346.909ZM359.035,341.877C358.903,341.877 358.762,341.916 358.61,341.996C358.458,342.075 358.304,342.216 358.145,342.421C357.987,342.625 357.821,342.908 357.646,343.271C357.472,343.633 357.294,344.096 357.112,344.66C356.931,345.223 356.745,345.904 356.554,346.701L356.771,345.366C356.982,344.642 357.173,344.042 357.345,343.567C357.516,343.093 357.689,342.716 357.864,342.435C358.038,342.155 358.223,341.956 358.417,341.837C358.612,341.719 358.834,341.659 359.085,341.659C359.342,341.659 359.539,341.735 359.678,341.887C359.816,342.038 359.885,342.229 359.885,342.46C359.885,342.645 359.844,342.814 359.762,342.969C359.679,343.124 359.567,343.249 359.426,343.345C359.284,343.44 359.124,343.488 358.946,343.488C358.755,343.488 358.607,343.437 358.501,343.335C358.396,343.233 358.343,343.086 358.343,342.895C358.343,342.737 358.379,342.59 358.452,342.455C358.524,342.32 358.623,342.203 358.748,342.104C358.874,342.005 359.012,341.939 359.164,341.907C359.144,341.9 359.124,341.893 359.104,341.887C359.085,341.88 359.062,341.877 359.035,341.877Z" style="fill:rgb(244,234,220);fill-rule:nonzero;"/>
                <path d="M363.345,346.909L361.951,346.909L363.909,340.315C363.975,340.091 363.968,339.926 363.889,339.821C363.81,339.715 363.609,339.663 363.286,339.663L363.345,339.455C363.813,339.448 364.232,339.41 364.601,339.341C364.97,339.272 365.319,339.175 365.649,339.05L363.345,346.909ZM363.592,345.475C363.856,344.717 364.102,344.091 364.329,343.597C364.556,343.103 364.779,342.714 364.996,342.43C365.214,342.147 365.438,341.948 365.668,341.832C365.899,341.717 366.146,341.659 366.41,341.659C366.733,341.659 366.962,341.729 367.097,341.867C367.232,342.005 367.3,342.188 367.3,342.416C367.3,342.643 367.257,342.888 367.171,343.152L366.202,346.068C366.143,346.246 366.13,346.373 366.163,346.449C366.196,346.525 366.255,346.563 366.341,346.563C366.426,346.563 366.52,346.515 366.622,346.419C366.725,346.324 366.835,346.111 366.954,345.782L367.131,345.307L367.319,345.307L367.072,346.029C366.98,346.306 366.86,346.516 366.711,346.661C366.563,346.806 366.405,346.907 366.237,346.963C366.069,347.019 365.906,347.047 365.747,347.047C365.431,347.047 365.202,346.976 365.06,346.834C364.919,346.693 364.848,346.502 364.848,346.261C364.848,346.021 364.897,345.759 364.996,345.475L365.876,342.806C365.916,342.694 365.944,342.589 365.96,342.49C365.977,342.391 365.973,342.31 365.95,342.248C365.927,342.185 365.869,342.154 365.777,342.154C365.652,342.154 365.507,342.236 365.342,342.401C365.177,342.566 365.008,342.796 364.833,343.093C364.658,343.389 364.484,343.735 364.309,344.131C364.135,344.526 363.966,344.951 363.805,345.406C363.644,345.861 363.5,346.329 363.375,346.81L363.592,345.475Z" style="fill:rgb(244,234,220);fill-rule:nonzero;"/>
                <path d="M371.649,343.439C371.405,344.164 371.171,344.762 370.947,345.233C370.723,345.704 370.504,346.07 370.29,346.33C370.076,346.591 369.857,346.775 369.633,346.884C369.408,346.993 369.171,347.047 368.921,347.047C368.644,347.047 368.431,346.988 368.283,346.869C368.135,346.75 368.053,346.579 368.036,346.355C368.02,346.131 368.061,345.864 368.16,345.554L369.119,342.638C369.184,342.447 369.199,342.317 369.163,342.248C369.127,342.178 369.069,342.144 368.99,342.144C368.904,342.144 368.809,342.192 368.703,342.287C368.598,342.383 368.486,342.595 368.367,342.925L368.189,343.399L368.001,343.399L368.249,342.678C368.347,342.401 368.471,342.19 368.619,342.045C368.768,341.9 368.926,341.799 369.094,341.743C369.262,341.687 369.422,341.659 369.573,341.659C369.87,341.659 370.091,341.724 370.236,341.852C370.381,341.981 370.46,342.162 370.473,342.396C370.486,342.63 370.44,342.908 370.334,343.231L369.445,345.9C369.3,346.335 369.333,346.553 369.544,346.553C369.669,346.553 369.81,346.47 369.969,346.306C370.127,346.141 370.293,345.913 370.468,345.623C370.643,345.334 370.816,344.994 370.987,344.605C371.158,344.216 371.323,343.798 371.481,343.35C371.639,342.902 371.778,342.444 371.896,341.976L371.649,343.439ZM372.134,346.068C372.087,346.233 372.068,346.357 372.074,346.439C372.081,346.521 372.137,346.563 372.242,346.563C372.361,346.563 372.471,346.505 372.573,346.39C372.676,346.274 372.776,346.072 372.875,345.782L373.063,345.277L373.251,345.277L372.984,346.029C372.898,346.286 372.784,346.488 372.643,346.637C372.501,346.785 372.346,346.89 372.178,346.953C372.01,347.016 371.837,347.047 371.659,347.047C371.481,347.047 371.331,347.017 371.209,346.958C371.087,346.899 370.993,346.816 370.928,346.711C370.862,346.586 370.834,346.436 370.844,346.261C370.853,346.086 370.885,345.887 370.937,345.663L371.936,341.798C372.206,341.791 372.461,341.778 372.702,341.758C372.943,341.738 373.165,341.706 373.369,341.659L372.134,346.068Z" style="fill:rgb(244,234,220);fill-rule:nonzero;"/>
                <path d="M375.208,346.909L373.814,346.909L375.02,342.638C375.047,342.552 375.061,342.472 375.065,342.396C375.068,342.32 375.06,342.259 375.04,342.213C375.02,342.167 374.971,342.144 374.892,342.144C374.78,342.144 374.674,342.203 374.575,342.322C374.476,342.44 374.374,342.641 374.269,342.925L374.081,343.429L373.893,343.429L374.16,342.678C374.259,342.414 374.378,342.21 374.516,342.065C374.654,341.92 374.809,341.816 374.981,341.753C375.152,341.691 375.323,341.659 375.495,341.659C375.719,341.659 375.89,341.701 376.009,341.783C376.127,341.865 376.206,341.976 376.246,342.114C376.286,342.253 376.299,342.402 376.286,342.564C376.272,342.725 376.246,342.885 376.206,343.043L375.208,346.909ZM377.6,342.806C377.633,342.694 377.658,342.594 377.674,342.505C377.691,342.416 377.689,342.345 377.67,342.292C377.65,342.239 377.6,342.213 377.521,342.213C377.37,342.213 377.208,342.304 377.037,342.485C376.865,342.666 376.689,342.921 376.508,343.251C376.327,343.58 376.147,343.973 375.969,344.427C375.791,344.882 375.623,345.38 375.465,345.92L375.514,345.238C375.791,344.361 376.061,343.661 376.325,343.137C376.589,342.613 376.872,342.236 377.175,342.005C377.478,341.775 377.821,341.659 378.203,341.659C378.421,341.659 378.587,341.699 378.703,341.778C378.818,341.857 378.895,341.966 378.935,342.104C378.974,342.243 378.986,342.401 378.969,342.579C378.953,342.757 378.918,342.948 378.866,343.152L377.808,346.909L376.394,346.909L377.6,342.806ZM380.24,342.806C380.299,342.635 380.327,342.493 380.324,342.381C380.32,342.269 380.273,342.213 380.18,342.213C380.055,342.213 379.912,342.29 379.75,342.445C379.589,342.6 379.416,342.834 379.231,343.147C379.047,343.46 378.856,343.856 378.658,344.333C378.46,344.811 378.263,345.373 378.065,346.019L378.085,345.485C378.322,344.734 378.548,344.111 378.762,343.617C378.976,343.122 379.194,342.732 379.414,342.445C379.635,342.159 379.864,341.956 380.101,341.837C380.339,341.719 380.592,341.659 380.863,341.659C381.146,341.659 381.35,341.727 381.475,341.862C381.601,341.997 381.665,342.177 381.668,342.401C381.671,342.625 381.627,342.875 381.535,343.152L380.566,346.068C380.5,346.259 380.485,346.39 380.521,346.459C380.558,346.528 380.615,346.563 380.694,346.563C380.78,346.563 380.876,346.515 380.981,346.419C381.087,346.324 381.199,346.111 381.317,345.782L381.495,345.307L381.683,345.307L381.436,346.029C381.344,346.306 381.223,346.516 381.075,346.661C380.927,346.806 380.769,346.907 380.601,346.963C380.433,347.019 380.266,347.047 380.101,347.047C379.91,347.047 379.749,347.016 379.617,346.953C379.485,346.89 379.383,346.803 379.311,346.691C379.225,346.559 379.187,346.391 379.197,346.187C379.207,345.983 379.258,345.745 379.35,345.475L380.24,342.806Z" style="fill:rgb(244,234,220);fill-rule:nonzero;"/>
                <path d="M383.858,346.513C383.963,346.513 384.079,346.457 384.204,346.345C384.329,346.233 384.458,346.07 384.589,345.856C384.721,345.642 384.85,345.38 384.975,345.07C385.1,344.76 385.215,344.401 385.321,343.992L385.103,345.07C384.939,345.558 384.757,345.946 384.56,346.236C384.362,346.526 384.151,346.734 383.927,346.859C383.703,346.984 383.469,347.047 383.225,347.047C382.856,347.047 382.579,346.938 382.395,346.721C382.21,346.503 382.118,346.207 382.118,345.831C382.118,345.475 382.179,345.103 382.301,344.714C382.423,344.325 382.588,343.95 382.795,343.587C383.003,343.225 383.237,342.898 383.497,342.608C383.757,342.318 384.034,342.088 384.327,341.916C384.621,341.745 384.909,341.659 385.192,341.659C385.41,341.659 385.578,341.745 385.697,341.916C385.815,342.088 385.851,342.355 385.805,342.717L385.697,342.776C385.73,342.539 385.718,342.355 385.662,342.223C385.606,342.091 385.512,342.025 385.38,342.025C385.248,342.025 385.102,342.101 384.94,342.253C384.779,342.404 384.619,342.612 384.461,342.875C384.303,343.139 384.156,343.437 384.021,343.77C383.886,344.103 383.779,344.452 383.7,344.818C383.621,345.184 383.581,345.544 383.581,345.9C383.581,346.124 383.604,346.283 383.65,346.375C383.696,346.467 383.766,346.513 383.858,346.513ZM385.954,341.808C386.237,341.801 386.494,341.786 386.725,341.763C386.955,341.74 387.176,341.706 387.387,341.659L386.092,346.068C386.072,346.154 386.057,346.235 386.048,346.311C386.038,346.386 386.048,346.447 386.077,346.493C386.107,346.54 386.158,346.563 386.23,346.563C386.316,346.563 386.412,346.512 386.517,346.409C386.623,346.307 386.731,346.098 386.843,345.782L387.021,345.307L387.209,345.307L386.962,346.029C386.87,346.299 386.751,346.507 386.606,346.652C386.461,346.797 386.306,346.899 386.141,346.958C385.977,347.017 385.815,347.047 385.657,347.047C385.314,347.047 385.071,346.945 384.926,346.741C384.827,346.596 384.782,346.416 384.792,346.202C384.802,345.988 384.846,345.742 384.926,345.465L385.954,341.808Z" style="fill:rgb(244,234,220);fill-rule:nonzero;"/>
                <path d="M389.196,346.909L387.802,346.909L388.998,342.638C389.031,342.546 389.053,342.462 389.063,342.386C389.073,342.31 389.064,342.251 389.038,342.208C389.012,342.165 388.962,342.144 388.89,342.144C388.771,342.144 388.664,342.198 388.568,342.307C388.473,342.416 388.369,342.622 388.257,342.925L388.069,343.429L387.881,343.429L388.148,342.678C388.28,342.302 388.453,342.038 388.667,341.887C388.881,341.735 389.133,341.659 389.423,341.659C389.661,341.659 389.842,341.701 389.967,341.783C390.092,341.865 390.176,341.976 390.219,342.114C390.262,342.253 390.279,342.402 390.269,342.564C390.259,342.725 390.234,342.885 390.195,343.043L389.196,346.909ZM389.512,345.238C389.769,344.52 390.008,343.928 390.229,343.464C390.45,342.999 390.667,342.635 390.882,342.371C391.096,342.108 391.315,341.923 391.539,341.818C391.763,341.712 392.004,341.659 392.261,341.659C392.577,341.659 392.804,341.729 392.943,341.867C393.081,342.005 393.15,342.188 393.15,342.416C393.15,342.643 393.107,342.888 393.022,343.152L392.053,346.068C391.987,346.253 391.971,346.381 392.004,346.454C392.037,346.526 392.096,346.563 392.182,346.563C392.267,346.563 392.363,346.515 392.468,346.419C392.574,346.324 392.686,346.111 392.804,345.782L392.982,345.307L393.17,345.307L392.923,346.029C392.831,346.306 392.71,346.516 392.562,346.661C392.414,346.806 392.256,346.907 392.088,346.963C391.92,347.019 391.756,347.047 391.598,347.047C391.407,347.047 391.246,347.019 391.114,346.963C390.982,346.907 390.88,346.826 390.807,346.721C390.722,346.589 390.681,346.423 390.684,346.222C390.687,346.021 390.738,345.772 390.837,345.475L391.727,342.806C391.766,342.701 391.793,342.599 391.806,342.5C391.819,342.401 391.816,342.318 391.796,342.253C391.776,342.187 391.72,342.154 391.628,342.154C391.503,342.154 391.361,342.234 391.203,342.396C391.045,342.557 390.878,342.781 390.704,343.068C390.529,343.355 390.356,343.689 390.185,344.071C390.013,344.454 389.849,344.861 389.69,345.292C389.532,345.724 389.391,346.167 389.265,346.622L389.512,345.238Z" style="fill:rgb(244,234,220);fill-rule:nonzero;"/>
                <path d="M394.337,346.77C394.389,346.797 394.445,346.815 394.505,346.825C394.564,346.834 394.636,346.839 394.722,346.839C394.966,346.839 395.165,346.765 395.32,346.617C395.475,346.469 395.553,346.259 395.553,345.989C395.553,345.772 395.506,345.549 395.414,345.322C395.322,345.095 395.183,344.846 394.999,344.576C394.847,344.338 394.707,344.108 394.579,343.884C394.45,343.66 394.386,343.403 394.386,343.113C394.386,342.829 394.459,342.579 394.604,342.361C394.749,342.144 394.954,341.972 395.221,341.847C395.488,341.722 395.81,341.659 396.185,341.659C396.429,341.659 396.665,341.689 396.892,341.748C397.119,341.808 397.309,341.91 397.46,342.055C397.612,342.2 397.688,342.411 397.688,342.687C397.688,342.786 397.666,342.895 397.624,343.014C397.581,343.132 397.515,343.23 397.426,343.305C397.337,343.381 397.223,343.419 397.085,343.419C396.92,343.419 396.788,343.358 396.689,343.236C396.591,343.114 396.541,342.954 396.541,342.757C396.541,342.579 396.572,342.419 396.635,342.277C396.698,342.136 396.768,342.022 396.848,341.936C396.762,341.883 396.647,341.857 396.502,341.857C396.264,341.857 396.078,341.93 395.943,342.075C395.808,342.22 395.737,342.427 395.73,342.697C395.73,342.849 395.757,342.992 395.81,343.127C395.862,343.262 395.935,343.399 396.027,343.538C396.119,343.676 396.218,343.831 396.324,344.002C396.521,344.325 396.668,344.602 396.764,344.833C396.859,345.063 396.907,345.297 396.907,345.535C396.907,345.818 396.833,346.073 396.684,346.301C396.536,346.528 396.322,346.709 396.042,346.844C395.762,346.979 395.431,347.047 395.048,347.047C394.772,347.047 394.508,347.011 394.258,346.938C394.007,346.866 393.804,346.745 393.65,346.577C393.495,346.409 393.417,346.184 393.417,345.9C393.417,345.716 393.465,345.551 393.561,345.406C393.656,345.261 393.793,345.189 393.971,345.189C394.149,345.189 394.287,345.263 394.386,345.411C394.485,345.559 394.534,345.742 394.534,345.96C394.534,346.131 394.51,346.286 394.46,346.424C394.411,346.563 394.37,346.678 394.337,346.77Z" style="fill:rgb(244,234,220);fill-rule:nonzero;"/>
            </g>
        </g>
    </g>
</svg>
