<?xml version="1.0" encoding="UTF-8" standalone="no"?>
<!DOCTYPE svg PUBLIC "-//W3C//DTD SVG 1.1//EN" "http://www.w3.org/Graphics/SVG/1.1/DTD/svg11.dtd">
<svg width="100%" height="100%" viewBox="0 0 314 522" version="1.1" xmlns="http://www.w3.org/2000/svg" xmlns:xlink="http://www.w3.org/1999/xlink" xml:space="preserve" xmlns:serif="http://www.serif.com/" style="fill-rule:evenodd;clip-rule:evenodd;stroke-linejoin:round;stroke-miterlimit:2;">
    <g transform="matrix(1,0,0,1,-7473.710763,-4150.742334)">
        <g id="Mesa-de-trabajo2" serif:id="Mesa de trabajo2" transform="matrix(0.248332,0,0,0.326778,5730.720527,2879.90876)">
            <rect x="7018.779" y="3888.976" width="1263.297" height="1596.998" style="fill:none;"/>
            <g transform="matrix(16.778587,0,0,12.750739,840.274314,3100.238847)">
                <g transform="matrix(1,0,0,1,400.0658,136.226)">
                    <path d="M0,-7.135L-0.051,-7.043L-4.56,1.894L-4.57,1.894C-4.682,2.158 -4.845,2.403 -5.049,2.616C-5.944,3.512 -7.39,3.512 -8.286,2.616C-8.957,1.934 -9.12,0.937 -8.774,0.112L-8.683,-0.061L-6.952,-3.522L-9.65,-6.229L-13.752,1.894L-13.762,1.894C-13.874,2.158 -14.037,2.403 -14.24,2.616C-15.136,3.512 -16.581,3.512 -17.477,2.616C-18.149,1.934 -18.312,0.937 -17.966,0.112L-17.874,-0.061L-16.144,-3.532L-18.831,-6.229L-22.933,1.894L-22.943,1.894C-23.055,2.158 -23.218,2.403 -23.422,2.616C-24.317,3.512 -25.763,3.512 -26.658,2.616C-27.33,1.934 -27.493,0.937 -27.147,0.112L-27.055,-0.061L-22.607,-8.977L-22.536,-9.13C-22.434,-9.354 -22.282,-9.568 -22.098,-9.751C-21.192,-10.647 -19.737,-10.647 -18.831,-9.751C-18.129,-9.038 -17.976,-7.99 -18.373,-7.135L-18.424,-7.043L-18.587,-6.708L-15.899,-4.01L-13.426,-8.977L-13.355,-9.13C-13.253,-9.354 -13.1,-9.568 -12.917,-9.751C-12.011,-10.647 -10.555,-10.647 -9.65,-9.751C-8.947,-9.038 -8.795,-7.99 -9.191,-7.135L-9.242,-7.043L-9.415,-6.708L-6.718,-4L-4.234,-8.977L-4.163,-9.13C-4.061,-9.354 -3.909,-9.568 -3.725,-9.751C-2.819,-10.647 -1.364,-10.647 -0.458,-9.751C0.244,-9.038 0.397,-7.99 0,-7.135" style="fill:rgb(237,114,33);fill-rule:nonzero;"/>
                </g>
                <g transform="matrix(1,0,0,1,431.7769,65.9884)">
                    <path d="M0,73.853C-1.069,73.853 -2.137,73.64 -3.153,73.214C-5.135,72.381 -6.68,70.834 -7.51,68.853L-33.243,11.884L-46.672,38.747L-36.616,38.738L-36.613,38.738C-34.647,38.738 -33.052,40.33 -33.051,42.298C-33.049,44.265 -34.642,45.861 -36.61,45.863L-52.435,45.877L-52.438,45.877C-53.672,45.877 -54.818,45.239 -55.468,44.189C-56.118,43.138 -56.177,41.826 -55.625,40.721L-36.267,1.997C-35.652,0.767 -34.396,0 -33.01,0.028C-31.636,0.055 -30.399,0.87 -29.834,2.123L-0.993,65.971C-0.975,66.01 -0.957,66.051 -0.941,66.091C-0.73,66.611 -0.132,66.861 0.386,66.648C0.906,66.437 1.155,65.841 0.943,65.321L-4.742,52.909C-5.493,51.09 -4.627,49.007 -2.809,48.256C-0.987,47.51 1.093,48.371 1.844,50.19L7.535,62.615C9.238,66.784 7.237,71.548 3.08,73.245C2.085,73.65 1.043,73.853 0,73.853" style="fill:rgb(237,114,33);fill-rule:nonzero;"/>
                </g>
                <text x="409.553px" y="152.63px" style="font-family:'Inter18pt-Regular', 'Inter 18pt';font-size:14.25px;fill:rgb(232,68,69);">alma</text>
                <g transform="matrix(0.990722,0,0,1,3.451586,0)">
                    <text x="372.002px" y="170.397px" style="font-family:'Inter18pt-Bold', 'Inter 18pt';font-weight:700;font-size:21.372px;fill:rgb(232,68,69);">desing</text>
                </g>
                <text x="374.328px" y="181.413px" style="font-family:'Constantia-BoldItalic', 'Constantia', serif;font-weight:700;font-style:italic;font-size:9.886px;fill:rgb(232,68,69);">AI for humans</text>
            </g>
        </g>
    </g>
</svg>
