<?xml version="1.0" encoding="UTF-8" standalone="no"?>
<!DOCTYPE svg PUBLIC "-//W3C//DTD SVG 1.1//EN" "http://www.w3.org/Graphics/SVG/1.1/DTD/svg11.dtd">
<svg width="100%" height="100%" viewBox="0 0 282 307" version="1.1" xmlns="http://www.w3.org/2000/svg" xmlns:xlink="http://www.w3.org/1999/xlink" xml:space="preserve" xmlns:serif="http://www.serif.com/" style="fill-rule:evenodd;clip-rule:evenodd;stroke-linejoin:round;stroke-miterlimit:2;">
    <g id="Capa-1" serif:id="Capa 1">
    </g>
    <g id="Mesa-de-trabajo1" serif:id="Mesa de trabajo1" transform="matrix(0.518072,0,0,0.488518,0,-749.359863)">
        <rect x="0" y="1533.946" width="543.986" height="627.878" style="fill:none;"/>
        <clipPath id="_clip1">
            <rect x="0" y="1533.946" width="543.986" height="627.878"/>
        </clipPath>
        <g clip-path="url(#_clip1)">
            <g transform="matrix(1.930233,0,0,2.047008,-2512.171561,1141.811837)">
                <g transform="matrix(1,0,0,1,942.238881,-615.432355)">
                    <path d="M473.096,1069.81L472.883,1070.194L454.096,1107.431L454.054,1107.431C453.587,1108.531 452.908,1109.552 452.058,1110.44C448.329,1114.173 442.304,1114.173 438.571,1110.44C435.775,1107.598 435.096,1103.444 436.537,1100.006L436.917,1099.285L444.129,1084.865L432.887,1073.585L415.795,1107.431L415.753,1107.431C415.287,1108.531 414.607,1109.552 413.762,1110.44C410.028,1114.173 404.007,1114.173 400.274,1110.44C397.474,1107.598 396.795,1103.444 398.237,1100.006L398.62,1099.285L405.828,1084.823L394.632,1073.585L377.541,1107.431L377.499,1107.431C377.032,1108.531 376.353,1109.552 375.503,1110.44C371.774,1114.173 365.749,1114.173 362.02,1110.44C359.22,1107.598 358.541,1103.444 359.982,1100.006L360.366,1099.285L378.899,1062.135L379.195,1061.498C379.62,1060.565 380.253,1059.673 381.02,1058.91C384.795,1055.177 390.857,1055.177 394.632,1058.91C397.557,1061.881 398.195,1066.248 396.541,1069.81L396.328,1070.194L395.649,1071.594L406.849,1082.831L417.154,1062.135L417.45,1061.498C417.875,1060.565 418.512,1059.673 419.275,1058.91C423.05,1055.177 429.117,1055.177 432.887,1058.91C435.817,1061.881 436.45,1066.248 434.8,1069.81L434.587,1070.194L433.867,1071.594L445.104,1082.873L455.454,1062.135L455.75,1061.498C456.175,1060.565 456.808,1059.673 457.575,1058.91C461.346,1055.177 467.412,1055.177 471.187,1058.91C474.112,1061.881 474.75,1066.248 473.096,1069.81" style="fill:rgb(156,163,175);"/>
                </g>
                <g transform="matrix(1,0,0,1,942.238881,-615.432355)">
                    <path d="M605.225,1114.603C600.771,1114.603 596.321,1113.716 592.087,1111.941C583.829,1108.47 577.392,1102.024 573.933,1093.77L466.712,856.4L410.758,968.329L452.658,968.292L452.671,968.292C460.862,968.292 467.508,974.925 467.512,983.121C467.521,991.321 460.883,997.971 452.683,997.979L386.745,998.037L386.733,998.037C381.591,998.037 376.816,995.379 374.108,991.004C371.4,986.625 371.154,981.158 373.454,976.554L454.112,815.204C456.675,810.079 461.908,806.883 467.683,807C473.408,807.112 478.562,810.508 480.917,815.729L601.087,1081.762C601.162,1081.924 601.237,1082.095 601.304,1082.262C602.183,1084.424 604.675,1085.47 606.833,1084.582C609,1083.703 610.037,1081.22 609.154,1079.053L585.467,1027.337C582.337,1019.757 585.946,1011.079 593.521,1007.95C601.112,1004.842 609.779,1008.429 612.908,1016.007L636.621,1067.774C643.717,1085.149 635.379,1104.999 618.058,1112.07C613.912,1113.757 609.571,1114.603 605.225,1114.603" style="fill:rgb(156,163,175);"/>
                </g>
            </g>
        </g>
    </g>
</svg>
