<?xml version="1.0" encoding="utf-8"?>
<!-- Generator: Adobe Illustrator 27.9.0, SVG Export Plug-In . SVG Version: 6.00 Build 0)  -->
<svg version="1.1" id="Capa_1" xmlns="http://www.w3.org/2000/svg" xmlns:xlink="http://www.w3.org/1999/xlink" x="0px" y="0px"
	 viewBox="0 0 206.81 193.43" style="enable-background:new 0 0 206.81 193.43;" xml:space="preserve">
<style type="text/css">
	.st0{fill:#DBAF96;}
	.st1{fill:#CE8F6C;}
	.st2{fill:#788591;}
	.st3{fill:#6A7886;}
	.st4{fill:#BA602D;}
	.st5{fill:#183045;}
</style>
<g>
	<path id="path11" class="st0" d="M172.85,186.34c-2.47-0.23-7.23-1.2-10.9-2.22c-7.37-2.04-19.52-7.21-31.84-13.55
		c-17.83-9.16-28.99-13.83-40.11-16.75c-2.82-0.74-9.28-2.11-9.97-2.11c-0.08,0-1.15,1.51-2.39,3.36
		c-4.14,6.16-7.72,10.21-12.76,14.43c-3.72,3.12-7.47,5.5-12.12,7.72c-4.79,2.28-9.35,3.62-14.87,4.36
		c-7.53,1.01-15.2,0.04-20.59-2.61c-3.15-1.55-6.84-5.12-8.07-7.82c-1.79-3.93-1.92-9.08-0.34-13.15c1.71-4.38,5.91-8.8,10.59-11.15
		c4.19-2.11,6.75-2.76,10.9-2.78c5.23-0.02,7.55,0.84,6.88,2.57l-0.22,0.56l-2.49,0.01c-1.37,0-3.61,0.24-4.97,0.53
		c-3.14,0.66-7.4,2.8-9.55,4.78c-0.91,0.84-2.18,2.59-2.83,3.91l-1.17,2.38v2.44v2.44l1.02,2.09c1.29,2.64,3.81,4.68,7.22,5.86
		l2.54,0.88l5.81-0.01l5.81-0.01l3.13-0.85c4.41-1.2,9.37-3.49,13.74-6.37l3.75-2.47l5.09-5.08c2.8-2.79,5.85-6.09,6.79-7.33
		c3.56-4.7,10.47-15.26,14.25-21.74c3.7-6.36,8.69-15.52,12.36-22.68l1.63-3.19l1.01-0.35l1.01-0.35l1.58,1.09l1.58,1.09l20.82,0.26
		c11.45,0.14,20.94,0.19,21.09,0.09c0.15-0.09-0.12-1.47-0.6-3.07c-7.15-23.8-11.18-38.03-12.98-45.87
		c-0.6-2.63-1.35-6.53-1.65-8.65c-0.69-4.82-0.7-12.03-0.02-15.48c0.28-1.44,0.46-2.67,0.41-2.73c-0.36-0.38-9.89,11.36-13.32,16.42
		c-3.44,5.06-7.46,11.81-7.11,11.93c0.2,0.07,1.3-0.23,2.44-0.66c2.41-0.9,3.77-0.99,4.04-0.27c0.11,0.28-0.61,2.26-1.59,4.41
		c-0.98,2.14-2,4.57-2.27,5.4c-0.75,2.33-2.08,4.79-3.15,5.78l-0.97,0.9l0.6,0.44c0.84,0.61,0.44,1.63-1.82,4.57l-1.89,2.46
		l0.47,0.29c0.73,0.45,0.15,2.03-1.33,3.59c-0.89,0.95-1.25,1.62-1.1,2.09c0.32,1.02-2.64,6.03-5.11,8.64l-2.09,2.21l0.15,1.03
		l0.15,1.03l-1.71,1.91l-1.71,1.91l0.75,0.2c0.41,0.11,0.75,0.35,0.75,0.54c0,0.19-0.55,1.01-1.22,1.82s-1.88,2.45-2.68,3.65
		c-1.85,2.75-4.21,4.84-7.12,6.29c-1.55,0.77-1.92,1.07-1.16,0.93c0.62-0.12,1.67-0.32,2.34-0.45l1.22-0.23v0.76
		c0,0.83-2.3,3.09-4.1,4.02c-0.63,0.33-1.15,0.72-1.15,0.88s0.2,0.49,0.45,0.74l0.45,0.45l-1.7,1.63c-0.94,0.9-2.53,2.03-3.54,2.52
		l-1.84,0.9l0.75,0.14c1.97,0.37,1.42,1.46-1.87,3.7c-1.03,0.7-2.46,1.69-3.17,2.21c-0.71,0.51-2.99,1.46-5.06,2.1l-3.77,1.17
		l-1.22,1.28c-0.85,0.89-1.22,1.65-1.22,2.48c0,0.71-0.47,1.88-1.14,2.88c-1.87,2.76-2.5,4.2-2.79,6.37
		c-0.15,1.13-0.47,2.42-0.7,2.86c-0.23,0.44-2.16,2.62-4.28,4.85l-3.85,4.05l-0.58-0.58l-0.58-0.58l1.72-5.39
		c1.07-3.33,2.15-5.97,2.83-6.89c1.28-1.73,1.65-2.46,5.2-10.31l2.63-5.81l-0.21-5.51l-0.21-5.51l0.83-3.58
		c0.53-2.29,1.07-3.75,1.49-4.05l0.67-0.47l0.2-2.58l0.2-2.58l2.94-5.86l2.94-5.86l0.84-0.12L69,95.8l0.03,1.06
		c0.02,0.58,0.4-0.39,0.85-2.17c0.89-3.53,3.03-7.25,4.48-7.8c0.46-0.17,1.71-1.64,2.79-3.27s2.36-3.45,2.86-4.06l0.9-1.11
		l0.58,0.48l0.58,0.48l0.97-2.05c0.64-1.36,1.92-2.95,3.79-4.73c1.55-1.47,3.28-2.88,3.83-3.12c0.56-0.24,1.82-1.23,2.81-2.2
		c0.99-0.97,2.42-2.06,3.19-2.42c0.76-0.36,1.6-0.96,1.87-1.34c0.58-0.82,3.48-2.57,4.26-2.57c0.76,0,1.93-1.35,2.94-3.37
		c1.85-3.72,9.34-15.9,13.16-21.37c5.73-8.22,9.92-13.37,15.13-18.55c4.96-4.94,9.71-8.43,14.56-10.68
		c3.42-1.59,7.51-2.63,10.33-2.63c1.02,0,2.98,0.35,4.34,0.77l2.49,0.77l1.7,1.63l1.7,1.63l-0.12,1.03
		c-0.07,0.57-0.42,1.21-0.77,1.44l-0.65,0.41l-1.71-0.93l-1.71-0.93h-3.09h-3.09l-2.49,1.23c-3.01,1.48-5.77,4.35-7.41,7.69
		c-0.63,1.28-1.5,3.76-1.94,5.51l-0.8,3.17l0.19,5.82c0.28,8.43,1.9,15.95,8,37.13c4.69,16.28,10.79,35.44,20.28,63.73
		c6.44,19.2,7.72,22.08,10.83,24.47c1.87,1.43,5.74,2.9,7.65,2.9c0.57,0,1.43,0.31,1.89,0.69l0.85,0.69l-0.25,0.99
		c-0.14,0.54-0.54,1.13-0.9,1.3c-0.36,0.17-10.29,0.22-22.08,0.1l-21.42-0.21l-0.79-0.71c-0.98-0.88-1.05-2.88-0.13-3.68
		c0.45-0.4,1.7-0.63,4.06-0.73l3.4-0.15l1.75-1.03c0.96-0.56,2.03-1.56,2.36-2.21l0.61-1.18l-0.2-2.09
		c-0.11-1.15-1.22-5.21-2.45-9.02c-4.92-15.17-9.4-29.18-10.06-31.47l-0.69-2.41l-1.12-0.32c-1.58-0.45-33.28-0.84-40.41-0.5
		l-5.92,0.28l-5.25,10.74c-2.89,5.91-6.86,13.92-8.82,17.82c-1.96,3.89-3.43,7.21-3.27,7.36c0.17,0.15,2.08,0.65,4.24,1.1
		c8.06,1.68,17.14,4.69,26.18,8.69c2.79,1.24,11.89,5.68,20.23,9.89c20.3,10.24,26.72,12.93,35.4,14.87l3.86,0.86l5.81-0.03
		l5.81-0.03l2.97-0.81c1.63-0.45,3.91-1.33,5.06-1.97c1.15-0.64,3.13-2.18,4.41-3.44l2.32-2.27l0.58,0.48
		c0.32,0.27,0.58,0.76,0.57,1.09c-0.01,0.92-2.33,3.89-4.17,5.37c-3.4,2.72-7.23,4.58-11.76,5.71
		C182.68,186.21,175.78,186.62,172.85,186.34L172.85,186.34z M52.31,151.7l-0.29-0.47l-0.51,0.69c-0.28,0.38-0.51,0.95-0.51,1.26
		v0.57l0.8-0.8C52.28,152.48,52.48,151.98,52.31,151.7L52.31,151.7z M66.65,122.31c7.4-13.85,16.99-28.75,25.21-39.2
		c2.81-3.57,3.36-4.39,2.67-3.96c-0.52,0.32-6.6,7.91-9.92,12.37c-6.3,8.48-12.54,18.67-19.06,31.14
		c-3.22,6.15-6.3,12.64-6.28,13.22c0,0.15,0.95-1.49,2.1-3.66C62.52,130.06,64.9,125.6,66.65,122.31L66.65,122.31z"/>
	<path id="path10" class="st1" d="M173.41,185.83c-10.77-0.9-19.66-4.17-44.8-16.48c-21.18-10.38-26.92-12.8-36.55-15.43
		c-4.38-1.2-10.7-2.57-11.81-2.57c-0.4,0-1.27,0.94-2.22,2.38c-2.89,4.43-5.67,7.91-9.14,11.44c-9.65,9.8-20.29,14.97-33.35,16.22
		l-4.41,0.42l-3.35-0.43c-9.32-1.19-15.44-4.75-18.15-10.52l-1.13-2.42l-0.16-3.14l-0.16-3.14l0.67-2.46
		c1.27-4.69,5.71-9.97,10.37-12.33c0.97-0.49,3.02-1.32,4.57-1.83l2.81-0.94l3.87,0.02c4.13,0.02,6.49,0.56,6.49,1.48v0.56
		l-3.56,0.24c-1.96,0.13-4.32,0.44-5.25,0.69c-0.93,0.25-2.85,1.06-4.28,1.81c-6.35,3.32-9.54,9.31-7.93,14.87l0.63,2.15l1.75,1.87
		c0.96,1.03,2.52,2.26,3.46,2.74c2.12,1.07,5.13,1.92,7.92,2.24c2.89,0.33,9.08-0.41,13.01-1.54c4.4-1.27,10.04-4.04,14.11-6.93
		c4.25-3.02,11.58-10.31,15.03-14.95c2.55-3.43,7.55-10.75,9.73-14.25c4-6.41,10.49-18.02,14.34-25.68
		c2.91-5.77,3.93-7.31,4.87-7.31c0.3,0,1.02,0.41,1.62,0.91c0.73,0.61,1.72,0.98,3.05,1.11c1.08,0.11,10.77,0.3,21.53,0.42
		c13.48,0.15,19.63,0.1,19.8-0.17c0.13-0.22-0.43-2.63-1.26-5.36c-4.91-16.29-8.19-27.71-11.07-38.55
		c-1.51-5.67-2.74-11.82-3.24-16.18c-0.55-4.77-0.29-11.56,0.56-14.69c0.33-1.21,0.49-2.31,0.36-2.44c-0.13-0.13-1.08,0.7-2.11,1.83
		c-3.19,3.52-10.19,12.39-12.55,15.93c-2.65,3.97-6.13,9.59-7.04,11.39l-0.65,1.27l0.69-0.23c0.38-0.12,1.87-0.65,3.32-1.16
		l2.62-0.93l0.5,0.49l0.5,0.49l-1.11,2.21c-0.61,1.21-1.74,3.89-2.51,5.95c-0.77,2.06-1.57,4.09-1.78,4.5
		c-0.21,0.41-1.07,1.47-1.91,2.34l-1.53,1.59h0.83c0.46,0,0.83,0.21,0.83,0.47c0,0.26-0.36,1.06-0.79,1.78
		c-1.53,2.54-3.42,4.54-5.33,5.63c-1.06,0.61-1.78,1.11-1.59,1.11c0.19,0,1.08-0.43,1.97-0.95c0.9-0.53,1.8-0.85,2-0.73
		c0.83,0.51,0.26,1.83-1.53,3.58c-1.15,1.12-1.67,1.85-1.31,1.85c0.32,0,0.59,0.25,0.59,0.57c0,1.12-4.19,7.32-6.01,8.9
		c-1.01,0.88-2.73,1.97-3.82,2.42c-1.09,0.45-1.76,0.83-1.5,0.84c0.26,0.01,1.09-0.24,1.83-0.54c1.52-0.64,2.75-0.73,2.75-0.22
		c0,0.87-2.68,3.75-4.88,5.23c-1.34,0.9-2.09,1.52-1.68,1.37c0.41-0.15,1.46-0.54,2.33-0.87c0.87-0.33,1.7-0.48,1.85-0.33
		s-0.1,0.73-0.55,1.29c-0.45,0.56-1.65,2.23-2.67,3.7c-1.02,1.47-2.58,3.29-3.47,4.06c-0.89,0.76-2.79,1.95-4.23,2.65l-2.61,1.27
		l0.64,0.25c0.35,0.13,1.17,0.06,1.82-0.17c1.58-0.55,2.57-0.52,2.57,0.08c0,0.55-1.92,2.43-3.46,3.38
		c-0.56,0.35-1.83,0.97-2.81,1.39l-1.79,0.76l1.57-0.2c0.92-0.12,1.67-0.04,1.82,0.2c0.37,0.61-2.58,3.21-5.19,4.58l-2.32,1.21
		l1.41,0.12c0.77,0.06,1.41,0.24,1.41,0.4c0,0.4-1.84,2.07-3.19,2.89c-0.62,0.38-1.66,1.14-2.32,1.7c-0.72,0.61-2.89,1.56-5.43,2.38
		c-2.33,0.75-4.55,1.65-4.94,2c-0.99,0.89-1.75,2.49-1.75,3.66c0,0.55-0.59,1.8-1.31,2.79c-1.68,2.29-2.28,3.78-2.61,6.49
		l-0.26,2.19l-3.99,4.28c-2.2,2.35-4.13,4.28-4.29,4.28c-0.77,0-0.6-1.38,0.69-5.49c1.57-5.02,2.22-6.46,3.85-8.5
		c0.63-0.79,1.35-2.05,1.6-2.81c0.25-0.76,1.57-3.74,2.93-6.63l2.47-5.25l-0.25-5.06l-0.25-5.06l0.78-3.92l0.78-3.92l0.87-0.81
		l0.87-0.81v-1.94c0-1.29,0.39-2.93,1.15-4.86c1.64-4.16,4.63-9.59,5.36-9.73l0.62-0.12l0.01,1.25c0,0.69,0.15,1.47,0.32,1.74
		c0.2,0.32,0.54-0.74,0.95-2.95c0.35-1.9,0.98-4.15,1.41-5c1.2-2.39,2.53-3.98,3.33-3.98c0.44,0,0.97-0.48,1.34-1.22
		c1.18-2.31,4.72-7.07,5.15-6.91c0.24,0.08,0.38,0.64,0.31,1.24c-0.17,1.52,0.35,0.81,1.6-2.2l1.05-2.54l3.2-2.99
		c1.76-1.64,3.45-2.99,3.75-2.99c0.31,0,1.41-0.86,2.45-1.92c1.04-1.06,2.49-2.17,3.22-2.48c0.73-0.31,1.56-0.88,1.84-1.28
		c0.62-0.88,2.91-2.35,4.19-2.7c1.46-0.39,2.35-1.35,3.72-3.99c2.35-4.56,9.14-15.54,13.09-21.18c5.68-8.1,9.28-12.47,14.84-18
		c5.17-5.14,8.8-7.89,13.65-10.31c3.87-1.94,7.07-2.76,10.75-2.75l3,0.01l2.14,0.83c1.18,0.46,2.64,1.31,3.26,1.88
		c1.25,1.17,1.85,2.87,1.23,3.5l-0.41,0.41l-2.32-1.04l-2.32-1.04l-2.85,0.17l-2.85,0.17l-2.25,1.07c-2.62,1.25-5.59,4.07-7.07,6.74
		c-1.57,2.82-2.78,6.75-3.24,10.59l-0.42,3.44l0.43,4.42c0.76,7.78,2.85,16.77,8.11,34.97c4,13.83,5.81,19.61,13.3,42.55
		c6.37,19.5,11.46,34.54,12.95,38.24c2.68,6.7,6.09,9.38,13.32,10.5c0.96,0.15,1.46,0.45,1.63,0.99c0.15,0.48,0.03,0.99-0.31,1.34
		l-0.56,0.56l-15.32-0.04c-8.43-0.02-18.16-0.15-21.63-0.28l-6.31-0.24l-0.53-0.53c-0.29-0.29-0.53-0.9-0.53-1.35
		c0.01-1.56,0.53-1.85,3.42-1.94c1.52-0.05,3.45-0.28,4.3-0.51c0.85-0.24,2.27-1.07,3.16-1.86l1.61-1.43l0.16-2.22l0.16-2.22
		l-1.19-3.75c-0.65-2.06-3.02-9.4-5.27-16.31c-2.24-6.91-4.7-14.67-5.46-17.25c-0.76-2.58-1.57-4.89-1.8-5.13l-0.42-0.44
		l-14.62-0.43l-14.62-0.43l-8.77,0.4c-4.82,0.22-8.96,0.56-9.18,0.75s-2.27,4.11-4.53,8.72c-2.27,4.6-6.25,12.63-8.85,17.83
		c-3.31,6.61-4.61,9.56-4.32,9.8c0.23,0.19,1.85,0.62,3.6,0.97c4.76,0.94,13.15,3.36,18.21,5.27c7.62,2.88,13.69,5.68,28.84,13.35
		c15.84,8.01,22.77,11.19,28.3,13.01c6.53,2.15,9.59,2.73,15.37,2.94l5.44,0.2l3.74-0.78c2.14-0.44,4.79-1.3,6.19-2
		c1.38-0.69,3.4-2.17,4.63-3.39c2.15-2.12,3.25-2.68,3.25-1.64c0,0.79-2.64,4.15-4.29,5.46
		C190.42,184.49,182.45,186.58,173.41,185.83L173.41,185.83z M52.12,152.97c0.86-1.09,0.84-1.75-0.06-1.92
		c-0.37-0.07-0.74,0.33-1,1.09c-0.23,0.66-0.42,1.34-0.42,1.52C50.63,154.27,51.34,153.95,52.12,152.97z M62.13,131.34
		c4.86-9.7,13-23.86,18.18-31.64c4.81-7.22,11.61-16.47,17.09-23.22c1.08-1.34,1.96-2.54,1.95-2.68c-0.01-0.14-1.36,1.18-3.01,2.94
		c-3.08,3.28-8.86,10.42-13.12,16.22c-3.27,4.45-8.29,12.35-12.4,19.51c-4.16,7.25-11.23,21.14-12.07,23.69l-0.61,1.87l0.79-0.94
		C59.36,136.58,60.8,133.99,62.13,131.34L62.13,131.34z"/>
	<path id="path9" class="st2" d="M172.85,185.45c-10.52-1.01-19.56-4.39-44.24-16.5c-17-8.34-21.02-10.16-28.3-12.8
		c-6.97-2.52-19.3-5.56-20.57-5.07c-0.25,0.1-1.28,1.42-2.28,2.93c-3.27,4.93-6.42,8.73-10.35,12.46c-4.29,4.08-8.97,7.35-14.03,9.8
		c-4.18,2.03-6.79,2.9-11.82,3.96l-3.93,0.83l-5.25,0.02l-5.25,0.02l-3.37-0.83c-1.86-0.46-4.39-1.32-5.62-1.93
		c-3.34-1.63-6.3-4.45-7.74-7.38l-1.21-2.46l-0.17-3.18l-0.17-3.18l0.66-2.42c0.82-3.02,2.79-6.09,5.68-8.82
		c2.48-2.35,4.71-3.6,8.89-5.01l2.81-0.94l3.87,0.04c4.18,0.04,5.6,0.29,5.84,1l0.15,0.46h-2.26c-5.48,0-11.35,2.3-14.92,5.83
		c-2.27,2.25-3.4,4.3-3.92,7.14l-0.38,2.07l0.42,2.04c1.1,5.31,6.1,9.01,13.46,9.94c3.67,0.47,9.45-0.11,13.82-1.37
		c4.38-1.27,9.43-3.7,13.67-6.59c4.4-3,12.36-10.85,16.1-15.9c7.46-10.05,16.45-24.99,23.85-39.63c1.75-3.46,3.51-6.47,3.91-6.68
		l0.73-0.39l1.53,1.06l1.53,1.06l21.36,0.3c14.15,0.2,21.49,0.18,21.73-0.07c0.36-0.36-0.12-2.12-6.18-22.54
		c-2.44-8.23-4.89-17.14-6.86-24.96c-2.67-10.6-3.46-19.65-2.25-25.65c0.31-1.55,0.67-3.36,0.8-4.03l0.23-1.22l-0.52,0
		c-1.08,0-10.75,11.93-15.96,19.68c-3.02,4.49-6.86,10.95-6.86,11.52c0,0.17,0.63,0.03,1.41-0.31c0.77-0.34,2.33-0.92,3.47-1.29
		l2.06-0.67l0.5,0.48l0.5,0.48l-1.11,2.21c-0.61,1.21-1.74,3.89-2.51,5.95c-0.77,2.06-1.57,4.09-1.78,4.5
		c-0.21,0.41-1.07,1.47-1.91,2.34l-1.53,1.59h0.83c0.46,0,0.83,0.21,0.83,0.47c0,0.26-0.36,1.06-0.79,1.78
		c-1.53,2.54-3.42,4.54-5.33,5.63c-1.06,0.61-1.78,1.11-1.59,1.11c0.19,0,1.08-0.43,1.97-0.95c0.9-0.53,1.8-0.85,2-0.73
		c0.83,0.51,0.26,1.83-1.53,3.58c-1.15,1.12-1.67,1.85-1.31,1.85c0.32,0,0.59,0.25,0.59,0.57c0,1.12-4.19,7.32-6.01,8.9
		c-1.01,0.88-2.73,1.97-3.82,2.42c-1.09,0.45-1.76,0.83-1.5,0.84c0.26,0.01,1.09-0.24,1.83-0.54c1.52-0.64,2.75-0.73,2.75-0.22
		c0,0.87-2.68,3.75-4.88,5.23c-1.34,0.9-2.09,1.52-1.68,1.37c0.41-0.15,1.46-0.54,2.33-0.87c0.87-0.33,1.7-0.48,1.85-0.33
		s-0.1,0.73-0.55,1.29c-0.45,0.56-1.65,2.23-2.67,3.7c-1.02,1.47-2.58,3.29-3.47,4.06c-0.89,0.76-2.79,1.95-4.23,2.65l-2.61,1.27
		l0.64,0.25c0.35,0.13,1.17,0.06,1.82-0.17c1.58-0.55,2.57-0.52,2.57,0.08c0,0.55-1.92,2.43-3.46,3.38
		c-0.56,0.35-1.83,0.97-2.81,1.39l-1.79,0.76l1.57-0.2c0.92-0.12,1.67-0.04,1.82,0.2c0.37,0.61-2.58,3.21-5.19,4.58l-2.32,1.21
		l1.41,0.12c0.77,0.06,1.41,0.24,1.41,0.4c0,0.4-1.84,2.07-3.19,2.89c-0.62,0.38-1.66,1.14-2.32,1.7c-0.72,0.61-2.89,1.56-5.43,2.38
		c-2.33,0.75-4.55,1.65-4.94,2c-0.99,0.89-1.75,2.49-1.75,3.66c0,0.55-0.59,1.8-1.31,2.79c-1.68,2.29-2.28,3.78-2.61,6.49
		l-0.26,2.19l-3.99,4.28c-2.2,2.35-4.13,4.28-4.29,4.28c-0.77,0-0.6-1.38,0.69-5.49c1.57-5.02,2.22-6.46,3.85-8.5
		c0.63-0.79,1.35-2.05,1.6-2.81c0.25-0.76,1.57-3.74,2.93-6.63l2.47-5.25l-0.25-5.06l-0.25-5.06l0.78-3.92l0.78-3.92l0.87-0.81
		l0.87-0.81v-1.94c0-1.29,0.39-2.93,1.15-4.86c1.64-4.16,4.63-9.59,5.36-9.73l0.62-0.12l0.01,1.25c0,0.69,0.15,1.47,0.32,1.74
		c0.2,0.32,0.54-0.74,0.95-2.95c0.35-1.9,0.98-4.15,1.41-5c1.2-2.39,2.53-3.98,3.33-3.98c0.44,0,0.97-0.48,1.34-1.22
		c1.18-2.31,4.72-7.07,5.15-6.91c0.24,0.08,0.38,0.64,0.31,1.24c-0.17,1.52,0.35,0.81,1.6-2.2l1.05-2.54l3.2-2.99
		c1.76-1.64,3.45-2.99,3.75-2.99c0.31,0,1.41-0.86,2.45-1.92c1.04-1.06,2.49-2.17,3.22-2.48c0.73-0.31,1.56-0.88,1.84-1.28
		c0.58-0.83,3.21-2.57,3.88-2.57c1.08,0,3.42-2.12,4.32-3.91c1.39-2.77,7.74-13.36,10.36-17.27c8.74-13.06,16.77-22.35,24.12-27.88
		c1.41-1.06,4.42-2.86,6.69-4c6.48-3.26,11.21-3.85,16.09-2.03c2.8,1.05,5.24,3.88,4.01,4.64c-0.18,0.11-1.3-0.23-2.48-0.77
		l-2.14-0.98l-2.87,0.17l-2.87,0.17l-2.13,1.02c-1.17,0.56-2.98,1.78-4.02,2.71c-5.11,4.6-7.7,13.29-6.77,22.73
		c0.79,8,2.85,16.97,8.09,35.15c3.83,13.28,5.5,18.63,13.31,42.55c9.61,29.42,13.09,39.29,15.1,42.71c1.12,1.91,4.33,4.47,6.62,5.29
		c0.91,0.33,2.57,0.71,3.68,0.85c1.29,0.17,2.17,0.49,2.43,0.91l0.41,0.65l-0.45,0.45l-0.45,0.45l-15.67-0.06
		c-18-0.07-27.09-0.37-27.76-0.9c-0.64-0.51-0.59-1.96,0.08-2.52c0.33-0.27,0.99-0.36,1.64-0.21c0.6,0.13,2.21,0.05,3.57-0.19
		c3.02-0.53,5.53-2.08,6.43-3.98l0.64-1.35l-0.16-2.11c-0.1-1.32-2.02-7.81-5.16-17.48c-2.75-8.45-5.71-17.8-6.58-20.77
		c-0.87-2.97-1.82-5.53-2.1-5.69c-0.28-0.16-7.03-0.49-14.98-0.73l-14.46-0.44l-9.12,0.42c-5.02,0.23-9.22,0.48-9.34,0.56
		c-0.12,0.08-2.16,4.07-4.53,8.88s-6.46,13.05-9.08,18.3l-4.77,9.56l0.46,0.43c0.25,0.23,1.98,0.72,3.84,1.07
		c1.86,0.35,5.48,1.23,8.06,1.94c10.52,2.91,19.21,6.59,38.57,16.39c8.17,4.13,16.71,8.34,18.97,9.36
		c5.6,2.51,11.58,4.63,16.31,5.78l3.94,0.96l5.25,0.17l5.25,0.17l3.73-0.77c2.05-0.42,4.8-1.3,6.12-1.95
		c1.31-0.65,3.48-2.19,4.81-3.44c1.33-1.25,2.52-2.17,2.64-2.05c0.34,0.34-1.15,2.54-2.75,4.06c-1.83,1.74-5.96,4.32-8.41,5.25
		C184.61,185.27,178.35,185.98,172.85,185.45z M52.12,152.97c0.86-1.09,0.84-1.75-0.06-1.92c-0.37-0.07-0.74,0.33-1,1.09
		c-0.23,0.66-0.42,1.34-0.42,1.52C50.63,154.27,51.34,153.95,52.12,152.97z M62.13,131.34c4.86-9.7,13-23.86,18.18-31.64
		c4.81-7.22,11.61-16.47,17.09-23.22c1.08-1.34,1.96-2.54,1.95-2.68c-0.01-0.14-1.36,1.18-3.01,2.94
		c-3.08,3.28-8.86,10.42-13.12,16.22c-3.27,4.45-8.29,12.35-12.4,19.51c-4.16,7.25-11.23,21.14-12.07,23.69l-0.61,1.87l0.79-0.94
		C59.36,136.58,60.8,133.99,62.13,131.34L62.13,131.34z"/>
	<path id="path8" class="st3" d="M172.85,185.45c-10.52-1.01-19.56-4.39-44.24-16.5c-17-8.34-21.02-10.16-28.3-12.8
		c-6.97-2.52-19.3-5.56-20.57-5.07c-0.25,0.1-1.28,1.42-2.28,2.93c-3.27,4.93-6.42,8.73-10.35,12.46c-4.29,4.08-8.97,7.35-14.03,9.8
		c-4.18,2.03-6.79,2.9-11.82,3.96l-3.93,0.83l-5.25,0.02l-5.25,0.02l-3.37-0.83c-1.86-0.46-4.39-1.32-5.62-1.93
		c-3.34-1.63-6.3-4.45-7.74-7.38l-1.21-2.46l-0.17-3.18l-0.17-3.18l0.66-2.42c0.82-3.02,2.79-6.09,5.68-8.82
		c2.48-2.35,4.71-3.6,8.89-5.01l2.81-0.94l3.87,0.04c4.18,0.04,5.6,0.29,5.84,1l0.15,0.46h-2.26c-5.48,0-11.35,2.3-14.92,5.83
		c-2.27,2.25-3.4,4.3-3.92,7.14l-0.38,2.07l0.42,2.04c1.1,5.31,6.1,9.01,13.46,9.94c3.67,0.47,9.45-0.11,13.82-1.37
		c4.38-1.27,9.43-3.7,13.67-6.59c4.4-3,12.36-10.85,16.1-15.9c7.46-10.05,16.45-24.99,23.85-39.63c1.75-3.46,3.51-6.47,3.91-6.68
		l0.73-0.39l1.53,1.06l1.53,1.06l21.36,0.3c14.15,0.2,21.49,0.18,21.73-0.07c0.36-0.36-0.12-2.12-6.18-22.54
		c-2.44-8.23-4.89-17.14-6.86-24.96c-2.67-10.6-3.46-19.65-2.25-25.65c0.31-1.55,0.67-3.36,0.8-4.03l0.23-1.22l-0.52,0
		c-1.08,0-10.75,11.93-15.96,19.68c-3.01,4.48-6.86,10.95-6.86,11.51c0,0.52,0.98,0.32,3.05-0.62c2.83-1.29,4.02-1.53,4.27-0.89
		c0.11,0.29-0.54,2.12-1.45,4.07c-0.91,1.95-1.86,4.22-2.12,5.04c-0.85,2.68-2.16,4.89-3.72,6.3c-0.84,0.76-1.53,1.53-1.53,1.7
		c0,0.18,0.42,0.24,0.94,0.14l0.94-0.18v0.56c0,0.6-2.84,4.63-3.84,5.45c-0.33,0.27-1.92,1.15-3.53,1.95l-2.93,1.46l1.17,0.02
		c0.64,0.01,2.15-0.48,3.36-1.09c1.21-0.61,2.26-1.04,2.35-0.95s0.05,0.58-0.08,1.1c-0.13,0.53-1.27,1.8-2.58,2.87
		c-3.21,2.64-3.29,2.74-1.64,2.06c0.8-0.33,1.52-0.6,1.59-0.6c0.83,0-2.44,5.58-4.66,7.96c-1.96,2.1-4.34,3.3-8.7,4.42
		c-1.75,0.45-3.26,0.9-3.37,1.01c-0.41,0.44,5.19-0.38,7.2-1.05c1.18-0.39,2.32-0.72,2.53-0.72c0.7,0,0.41,0.62-1.13,2.37
		c-1.76,2-4.13,3.4-8.69,5.16c-1.8,0.69-3.2,1.32-3.12,1.4c0.24,0.24,5.73-1.37,8.09-2.36c2.7-1.14,3.27-1.19,2.56-0.23
		c-0.28,0.39-1.38,1.95-2.44,3.48c-3.15,4.55-6.33,6.97-10.47,7.97c-1.23,0.3-1.84,0.55-1.36,0.57c0.48,0.02,1.19,0.2,1.58,0.41
		c0.49,0.26,1.23,0.24,2.4-0.07c0.93-0.25,1.81-0.33,1.96-0.19c0.41,0.41-1.59,2.31-3.55,3.37c-0.96,0.52-2.72,1.23-3.91,1.57
		s-2.16,0.72-2.16,0.84c0,0.12,1.18,0.12,2.62,0c1.44-0.12,2.62-0.09,2.62,0.06c0,0.43-1.88,2.09-3.56,3.15
		c-0.82,0.52-2.34,1.24-3.37,1.61c-2.8,1-2.98,1.43-0.49,1.15c1.21-0.13,2.23-0.08,2.35,0.12c0.21,0.34-0.32,0.82-3.99,3.54
		c-2.39,1.78-3.53,2.33-6.58,3.17c-1.44,0.4-3.14,1-3.78,1.33c-1.5,0.78-3.07,3.08-3.07,4.51c0,0.69-0.56,1.92-1.5,3.25
		c-0.94,1.34-1.65,2.88-1.9,4.14c-0.85,4.22-1.03,4.54-4.85,8.54c-2.05,2.15-3.85,3.8-3.99,3.66c-0.14-0.14,0.39-2.45,1.18-5.13
		c0.95-3.25,1.85-5.47,2.67-6.66c1.43-2.06,1.78-2.74,5.42-10.69l2.71-5.92l-0.22-5.71l-0.22-5.71l0.82-3.19l0.82-3.19l0.66,0.05
		c0.36,0.03,0.67-0.06,0.68-0.19c0.01-0.13,0.16-1.71,0.31-3.51l0.29-3.27l2.34-4.79c1.29-2.64,2.59-5.13,2.89-5.54l0.55-0.75
		l0.35,0.56c0.19,0.31,0.37,1.57,0.39,2.81c0.02,1.24,0.18,2.59,0.35,3l0.32,0.75l0.04-1.5c0.02-0.82,0.35-3.31,0.73-5.52
		c0.68-3.95,1.51-5.97,3.37-8.18l0.77-0.92l0.33,0.5l0.33,0.5l1.23-2.19c1.87-3.32,4.56-6.96,4.9-6.62
		c0.17,0.17-0.02,1.91-0.41,3.87c-0.39,1.96-0.71,4.24-0.7,5.06l0.02,1.5l0.85-3.59c1.13-4.74,2.35-8.5,3.24-9.95
		c0.4-0.65,1.99-2.38,3.55-3.86c1.93-1.83,3.03-2.62,3.47-2.49c0.43,0.14,0.88-0.18,1.39-0.95c0.87-1.34,3.8-3.71,4.59-3.71
		c0.3,0,1.27-0.75,2.16-1.66c1-1.03,2.17-1.81,3.07-2.05c1.71-0.46,3.45-2.17,4.62-4.53c1.25-2.53,7.67-13.21,10.24-17.06
		c8.74-13.06,16.77-22.35,24.12-27.88c1.41-1.06,4.42-2.86,6.69-4c6.48-3.26,11.21-3.85,16.09-2.03c2.8,1.05,5.24,3.88,4.01,4.64
		c-0.18,0.11-1.3-0.23-2.48-0.77l-2.14-0.98l-2.87,0.17l-2.87,0.17l-2.13,1.02c-1.17,0.56-2.98,1.78-4.02,2.71
		c-5.11,4.6-7.7,13.29-6.77,22.73c0.79,8,2.85,16.97,8.09,35.15c3.83,13.28,5.5,18.63,13.31,42.55
		c9.61,29.42,13.09,39.29,15.1,42.71c1.12,1.91,4.33,4.47,6.62,5.29c0.91,0.33,2.57,0.71,3.68,0.85c1.29,0.17,2.17,0.49,2.43,0.91
		l0.41,0.65l-0.45,0.45l-0.45,0.45l-15.67-0.06c-18-0.07-27.09-0.37-27.76-0.9c-0.64-0.51-0.59-1.96,0.08-2.52
		c0.33-0.27,0.99-0.36,1.64-0.21c0.6,0.13,2.21,0.05,3.57-0.19c3.02-0.53,5.53-2.08,6.43-3.98l0.64-1.35l-0.16-2.11
		c-0.1-1.32-2.02-7.81-5.16-17.48c-2.75-8.45-5.71-17.8-6.58-20.77s-1.82-5.53-2.1-5.69s-7.03-0.49-14.98-0.73l-14.46-0.44
		l-9.12,0.42c-5.02,0.23-9.22,0.48-9.34,0.56c-0.12,0.08-2.16,4.07-4.53,8.88c-2.37,4.81-6.46,13.05-9.08,18.3l-4.77,9.56l0.46,0.43
		c0.25,0.23,1.98,0.72,3.84,1.07c1.86,0.35,5.48,1.23,8.06,1.94c10.52,2.91,19.21,6.59,38.57,16.39c8.17,4.13,16.71,8.34,18.97,9.36
		c5.6,2.51,11.58,4.63,16.31,5.78l3.94,0.96l5.25,0.17l5.25,0.17l3.73-0.77c2.05-0.42,4.8-1.3,6.12-1.95
		c1.31-0.65,3.48-2.19,4.81-3.44c1.33-1.25,2.52-2.17,2.64-2.05c0.34,0.34-1.15,2.54-2.75,4.06c-1.83,1.74-5.96,4.32-8.41,5.25
		C184.61,185.27,178.35,185.98,172.85,185.45z M52.11,153.32c1.44-1.74,1.51-2.73,0.21-2.73c-0.99,0-1.33,0.54-1.85,2.91
		c-0.16,0.74-0.12,1.22,0.11,1.22C50.78,154.72,51.47,154.09,52.11,153.32L52.11,153.32z M61.87,132.36
		c10.76-20.48,16.64-30.19,26.54-43.78c3.19-4.38,8.71-11.42,12.6-16.07c0.82-0.98,1.4-1.87,1.29-1.99
		c-0.11-0.11-2.32,2.04-4.92,4.78c-4.9,5.19-11.8,13.78-16.49,20.54c-4.77,6.88-11.49,18.28-17.02,28.87
		c-2.66,5.09-5.96,12.47-6.29,14.06l-0.24,1.12l0.71-0.8C58.42,138.67,60.15,135.63,61.87,132.36z"/>
	<path id="path7" class="st4" d="M172.85,185.45c-10.52-1.01-19.56-4.39-44.24-16.5c-17-8.34-21.02-10.16-28.3-12.8
		c-6.97-2.52-19.3-5.56-20.57-5.07c-0.25,0.1-1.28,1.42-2.28,2.93c-3.27,4.93-6.42,8.73-10.35,12.46c-4.29,4.08-8.97,7.35-14.03,9.8
		c-4.18,2.03-6.79,2.9-11.82,3.96l-3.93,0.83l-5.25,0.02l-5.25,0.02l-3.37-0.83c-1.86-0.46-4.39-1.32-5.62-1.93
		c-3.34-1.63-6.3-4.45-7.74-7.38l-1.21-2.46l-0.17-3.18l-0.17-3.18l0.66-2.42c0.82-3.02,2.79-6.09,5.68-8.82
		c2.48-2.35,4.71-3.6,8.89-5.01l2.81-0.94l3.87,0.04c4.18,0.04,5.6,0.29,5.84,1l0.15,0.46h-2.26c-5.48,0-11.35,2.3-14.92,5.83
		c-2.27,2.25-3.4,4.3-3.92,7.14l-0.38,2.07l0.42,2.04c1.1,5.31,6.1,9.01,13.46,9.94c3.67,0.47,9.45-0.11,13.82-1.37
		c4.38-1.27,9.43-3.7,13.67-6.59c4.4-3,12.36-10.85,16.1-15.9c7.46-10.05,16.45-24.99,23.85-39.63c1.75-3.46,3.51-6.47,3.91-6.68
		l0.73-0.39l1.53,1.06l1.53,1.06l21.36,0.3c14.15,0.2,21.49,0.18,21.73-0.07c0.36-0.36-0.12-2.12-6.18-22.54
		c-2.44-8.23-4.89-17.14-6.86-24.96c-2.67-10.6-3.46-19.65-2.25-25.65c0.31-1.55,0.67-3.36,0.8-4.03l0.23-1.22l-0.52,0
		c-1.08,0-10.75,11.93-15.96,19.68c-3.72,5.54-6.86,10.99-6.86,11.89v0.68l1.41-0.71c1.89-0.95,5.34-2.06,5.6-1.8
		c0.11,0.11-0.66,2.15-1.71,4.53c-1.06,2.37-1.92,4.49-1.92,4.69c0,0.21-0.4,1.28-0.89,2.39c-0.58,1.32-1.55,2.58-2.81,3.67
		c-1.06,0.91-1.92,1.88-1.92,2.15l0,0.5l1.12-0.25c0.62-0.14,1.12-0.11,1.12,0.06c0,0.64-1.55,2.82-3.1,4.37l-1.6,1.6l-3.88,1.66
		c-2.14,0.91-3.68,1.72-3.44,1.81c1.05,0.35,4.71-0.45,6.6-1.44l2.04-1.08v0.61c0,0.94-3.58,4.04-6.36,5.5
		c-1.37,0.72-3.83,1.67-5.47,2.11c-1.64,0.44-3.23,1.04-3.53,1.33l-0.55,0.53h1.13c1.39,0,6.76-1.79,9.42-3.13
		c1.08-0.55,2.14-0.99,2.36-0.99c0.64,0-2.02,4.46-4,6.71c-1.11,1.26-2.5,2.35-3.7,2.9c-1.06,0.48-3.91,1.37-6.34,1.97
		c-2.43,0.6-4.6,1.28-4.83,1.5l-0.41,0.41l1.11-0.01c1.78-0.01,7.65-1.05,9.64-1.71c1.01-0.33,1.9-0.53,2-0.44
		c0.09,0.09-0.5,0.92-1.31,1.85c-1.77,2.02-4.5,3.5-9.79,5.35c-4.3,1.5-5.15,1.91-4.78,2.29c0.36,0.36,7.51-1.56,10.55-2.84
		c1.45-0.61,2.71-1.02,2.81-0.92c0.1,0.1-0.16,0.56-0.58,1.02c-0.42,0.46-1.36,1.77-2.1,2.9c-1.7,2.61-3.27,4.11-5.98,5.74
		l-2.16,1.29l-3.09,0.44c-4.17,0.6-6.17,1.12-6.69,1.75l-0.43,0.52h0.63c0.35,0,2.06-0.28,3.8-0.62l3.17-0.62l0.9,0.48l0.9,0.48
		l1.21-0.42c0.67-0.23,1.47-0.42,1.78-0.42H86l-0.91,0.97c-1.43,1.54-3.72,2.71-6.78,3.47c-1.56,0.39-3.15,0.91-3.54,1.15
		l-0.71,0.44l3.47-0.13c1.91-0.07,3.47-0.01,3.47,0.14c0,0.43-2.22,2.18-3.71,2.93c-0.75,0.37-2.49,1.05-3.88,1.51
		c-1.39,0.46-2.64,1.01-2.78,1.24l-0.25,0.4l3.13-0.26l3.13-0.26l-0.73,0.8c-0.4,0.44-1.16,1.03-1.7,1.3
		c-0.53,0.28-1.64,1.06-2.46,1.74c-0.89,0.74-2.61,1.59-4.28,2.12c-3.72,1.16-5.65,1.95-6.49,2.66c-0.93,0.78-2.09,3.11-2.02,4.05
		c0.03,0.41-0.68,1.88-1.58,3.26l-1.63,2.51l-0.49,2.8l-0.49,2.8l-3.67,3.91c-2.02,2.15-3.72,3.77-3.79,3.59
		c-0.15-0.45,2.37-8.7,3.08-10.08c0.31-0.61,1.01-1.62,1.54-2.26c0.53-0.63,1.39-2.18,1.9-3.43c1.38-3.4,4.95-10.88,5.19-10.88
		c0.12,0-0.23,1.14-0.78,2.53c-0.54,1.39-1.07,3.12-1.16,3.84l-0.17,1.31l0.76-0.75c0.42-0.41,2.82-4.71,5.33-9.56
		c2.51-4.85,5.2-9.91,5.97-11.25c8.12-14.11,11.48-19.39,18.57-29.25c4.27-5.94,7.03-9.47,13.08-16.72
		c2.66-3.19,4.76-5.86,4.67-5.94c-0.29-0.29-4.27,3.36-7.97,7.31c-3.97,4.24-10.13,11.81-14.82,18.22
		c-3.09,4.22-8.78,13.24-12.87,20.39c-1.36,2.37-4.23,7.75-6.39,11.95l-3.93,7.64l-0.28-4.78c-0.15-2.63-0.18-5.73-0.07-6.89
		c0.27-2.81,1.01-6.05,1.37-6.05c0.16,0,0.38,1.27,0.48,2.82c0.17,2.64,0.42,3.55,0.85,3.12c0.1-0.1,0.2-2.85,0.21-6.12l0.03-5.93
		l0.72-1.91c1.11-2.92,4.61-9.73,5.07-9.87c0.45-0.13,1.03,5.52,1.07,10.37c0.01,1.87,0.17,2.83,0.49,2.94l0.47,0.16l0-5.75l0-5.75
		l0.71-3.46c0.45-2.16,1.16-4.24,1.9-5.53c1.23-2.15,1.88-2.6,1.88-1.32c0,1.29,0.62,0.82,1.31-0.98c0.36-0.95,1.61-3.15,2.77-4.87
		c2-2.98,2.96-3.92,2.52-2.49c-0.62,2.05-1.73,9.6-1.73,11.81v2.59l0.47-0.15c0.26-0.08,0.53-0.64,0.59-1.23
		c0.07-0.59,0.45-1.49,0.84-1.99c0.39-0.5,0.72-1.12,0.72-1.38s1.1-1.5,2.44-2.75S86.8,84.94,87,84.4c0.2-0.53,0.37-1.65,0.37-2.47
		v-1.5l-2.42,2.18l-2.42,2.18l-0.67,2.06c-1.05,3.24-1.05,1.02,0.01-3.26c0.5-2.04,1.29-4.58,1.75-5.65l0.83-1.94l2.99-2.85
		l2.99-2.85l0.47,0.64l0.47,0.64l0.96-1.64c1.24-2.12,3.8-4.21,4.78-3.89l0.72,0.23l0.57-1.11c0.74-1.43,2.21-2.57,3.92-3.06
		c0.75-0.21,1.78-0.76,2.29-1.23c0.52-0.47,1.42-1.86,2.01-3.09c1.34-2.8,7.49-13.13,10.49-17.61
		c8.74-13.06,16.77-22.35,24.12-27.88c1.41-1.06,4.42-2.86,6.69-4c6.48-3.26,11.21-3.85,16.09-2.03c2.8,1.05,5.24,3.88,4.01,4.64
		c-0.18,0.11-1.3-0.23-2.48-0.77l-2.14-0.98l-2.87,0.17l-2.87,0.17l-2.13,1.02c-1.17,0.56-2.98,1.78-4.02,2.71
		c-5.11,4.6-7.7,13.29-6.77,22.73c0.79,8,2.85,16.97,8.09,35.15c3.83,13.28,5.5,18.63,13.31,42.55
		c9.61,29.42,13.09,39.29,15.1,42.71c1.12,1.91,4.33,4.47,6.62,5.29c0.91,0.33,2.57,0.71,3.68,0.85c1.29,0.17,2.17,0.49,2.43,0.91
		l0.41,0.65l-0.45,0.45l-0.45,0.45l-15.67-0.06c-18-0.07-27.09-0.37-27.76-0.9c-0.64-0.51-0.59-1.96,0.08-2.52
		c0.33-0.27,0.99-0.36,1.64-0.21c0.6,0.13,2.21,0.05,3.57-0.19c3.02-0.53,5.53-2.08,6.43-3.98l0.64-1.35l-0.16-2.11
		c-0.1-1.32-2.02-7.81-5.16-17.48c-2.75-8.45-5.71-17.8-6.58-20.77s-1.82-5.53-2.1-5.69s-7.03-0.49-14.98-0.73l-14.46-0.44
		l-9.12,0.42c-5.02,0.23-9.22,0.48-9.34,0.56c-0.12,0.08-2.16,4.07-4.53,8.88c-2.37,4.81-6.46,13.05-9.08,18.3l-4.77,9.56l0.46,0.43
		c0.25,0.23,1.98,0.72,3.84,1.07c1.86,0.35,5.48,1.23,8.06,1.94c10.52,2.91,19.21,6.59,38.57,16.39c8.17,4.13,16.71,8.34,18.97,9.36
		c5.6,2.51,11.58,4.63,16.31,5.78l3.94,0.96l5.25,0.17l5.25,0.17l3.73-0.77c2.05-0.42,4.8-1.3,6.12-1.95
		c1.31-0.65,3.48-2.19,4.81-3.44c1.33-1.25,2.52-2.17,2.64-2.05c0.34,0.34-1.15,2.54-2.75,4.06c-1.83,1.74-5.96,4.32-8.41,5.25
		C184.61,185.27,178.35,185.98,172.85,185.45z M51.83,154.06c1.14-1.22,1.8-2.43,1.8-3.28v-0.61l-1.22,0.12l-1.22,0.12l-0.66,1.99
		C49.6,155.22,50.12,155.89,51.83,154.06z M65.86,115.83c-0.38-0.38-0.7,0.19-0.38,0.7l0.29,0.48l0.16-0.47
		C66.01,116.27,65.98,115.95,65.86,115.83L65.86,115.83z M66,112.52c0-0.54-0.16-0.86-0.37-0.73c-0.21,0.13-0.37,0.56-0.37,0.96
		s0.17,0.73,0.37,0.73S66,113.05,66,112.52z M68.08,111.13c0.16-0.86,0.11-1.41-0.11-1.41c-0.42,0-0.82,1.25-0.83,2.61
		C67.13,113.65,67.76,112.84,68.08,111.13z M72.37,103.84c0.01,0.43,1.51-0.44,1.51-0.87c0-0.2,0.34-0.7,0.75-1.11
		c0.76-0.76,0.92-1.77,0.52-3.24l-0.21-0.8l-1.47,0.96c-0.81,0.53-1.47,1.23-1.47,1.56s-0.34,0.89-0.75,1.24
		c-0.47,0.4-0.75,1.11-0.75,1.9c0,0.69,0.12,1.37,0.27,1.52s0.56-0.12,0.93-0.59C72.06,103.93,72.36,103.67,72.37,103.84
		L72.37,103.84z"/>
	<path id="path6" class="st5" d="M47.26,160.02c0-0.79,2.53-8.91,3.15-10.11c0.31-0.61,1.01-1.62,1.54-2.26
		c0.53-0.63,1.39-2.18,1.9-3.43c1.38-3.4,4.95-10.88,5.19-10.88c0.12,0-0.23,1.14-0.78,2.53c-0.54,1.39-1.07,3.12-1.16,3.84
		l-0.17,1.31l0.76-0.75c0.42-0.41,2.82-4.71,5.33-9.56c2.51-4.85,5.2-9.91,5.97-11.25c8.12-14.11,11.48-19.39,18.57-29.25
		c4.27-5.94,7.03-9.47,13.08-16.72c2.66-3.19,4.76-5.86,4.67-5.94c-0.29-0.29-4.27,3.36-7.97,7.31
		c-3.97,4.24-10.13,11.81-14.82,18.22c-3.09,4.22-8.78,13.24-12.87,20.39c-1.36,2.37-4.23,7.75-6.39,11.95l-3.93,7.64l-0.28-4.78
		c-0.15-2.63-0.18-5.73-0.07-6.89c0.27-2.81,1.01-6.05,1.37-6.05c0.16,0,0.38,1.27,0.48,2.82c0.17,2.64,0.42,3.55,0.85,3.12
		c0.1-0.1,0.2-2.85,0.21-6.12l0.03-5.93l0.72-1.91c1.11-2.92,4.61-9.73,5.07-9.87c0.45-0.13,1.03,5.52,1.07,10.37
		c0.01,1.87,0.17,2.83,0.49,2.94l0.47,0.16l0-5.75l0-5.75l0.71-3.46c0.45-2.16,1.16-4.24,1.9-5.53c1.23-2.15,1.88-2.6,1.88-1.32
		c0,1.29,0.62,0.82,1.31-0.98c0.36-0.95,1.61-3.15,2.77-4.87c2-2.98,2.96-3.92,2.52-2.49c-0.62,2.05-1.73,9.6-1.73,11.81v2.59
		l0.47-0.15c0.26-0.08,0.53-0.64,0.59-1.23c0.07-0.59,0.45-1.49,0.84-1.99c0.39-0.5,0.72-1.12,0.72-1.38s1.1-1.5,2.44-2.75
		S86.8,84.94,87,84.4c0.2-0.53,0.37-1.65,0.37-2.47v-1.5l-2.42,2.18l-2.42,2.18l-0.67,2.06c-1.05,3.24-1.05,1.02,0.01-3.26
		c0.5-2.04,1.29-4.58,1.75-5.65l0.83-1.94l2.99-2.85l2.99-2.85l0.47,0.64l0.47,0.64l0.96-1.64c1.23-2.09,3.8-4.2,4.75-3.9l0.7,0.22
		l0.78-1.32c0.81-1.37,2.79-2.82,3.85-2.83c0.33,0,1.24-0.51,2.02-1.13c1.24-0.98,3.28-1.83,5.06-2.11
		c0.31-0.05,1.57-0.51,2.81-1.02c1.24-0.52,2.74-1.06,3.34-1.21l1.09-0.27l-0.21,0.71c-0.12,0.39-0.98,2.48-1.91,4.65
		c-0.93,2.17-2.07,4.92-2.52,6.12l-0.83,2.18l-2,1.76c-1.1,0.97-2.01,1.98-2.01,2.26l0,0.5l1.12-0.25c0.62-0.14,1.12-0.11,1.12,0.06
		c0,0.64-1.55,2.82-3.1,4.37l-1.6,1.6l-3.88,1.66c-2.14,0.91-3.68,1.72-3.44,1.81c1.05,0.35,4.71-0.45,6.6-1.44l2.04-1.08v0.61
		c0,0.94-3.58,4.04-6.36,5.5c-1.37,0.72-3.83,1.67-5.47,2.11c-1.64,0.44-3.23,1.04-3.53,1.33l-0.55,0.53h1.13
		c1.39,0,6.76-1.79,9.42-3.13c1.08-0.55,2.14-0.99,2.36-0.99c0.64,0-2.02,4.46-4,6.71c-1.11,1.26-2.5,2.35-3.7,2.9
		c-1.06,0.48-3.91,1.37-6.34,1.97c-2.43,0.6-4.6,1.28-4.83,1.5l-0.41,0.41l1.11-0.01c1.78-0.01,7.65-1.05,9.64-1.71
		c1.01-0.33,1.9-0.53,2-0.44c0.09,0.09-0.5,0.92-1.31,1.85c-1.77,2.02-4.5,3.5-9.79,5.35c-4.3,1.5-5.15,1.91-4.78,2.29
		c0.36,0.36,7.51-1.56,10.55-2.84c1.45-0.61,2.71-1.02,2.81-0.92c0.1,0.1-0.16,0.56-0.58,1.02c-0.42,0.46-1.36,1.77-2.1,2.9
		c-1.7,2.61-3.27,4.11-5.98,5.74l-2.16,1.29l-3.09,0.44c-4.17,0.6-6.17,1.12-6.69,1.75l-0.43,0.52h0.63c0.35,0,2.06-0.28,3.8-0.62
		l3.17-0.62l0.9,0.48l0.9,0.48l1.21-0.42c0.67-0.23,1.47-0.42,1.78-0.42H86l-0.91,0.97c-1.43,1.54-3.72,2.71-6.78,3.47
		c-1.56,0.39-3.15,0.91-3.54,1.15l-0.71,0.44l3.47-0.13c1.91-0.07,3.47-0.01,3.47,0.14c0,0.43-2.22,2.18-3.71,2.93
		c-0.75,0.37-2.49,1.05-3.88,1.51c-1.39,0.46-2.64,1.01-2.78,1.24l-0.25,0.4l3.13-0.26l3.13-0.26l-0.73,0.8
		c-0.4,0.44-1.16,1.03-1.7,1.3c-0.53,0.28-1.64,1.06-2.46,1.74c-0.89,0.74-2.61,1.59-4.28,2.12c-3.72,1.16-5.65,1.95-6.49,2.66
		c-0.93,0.78-2.09,3.11-2.02,4.05c0.03,0.41-0.68,1.88-1.58,3.26l-1.63,2.51l-0.5,2.85l-0.5,2.85l-2.89,3.04
		c-1.59,1.67-3.28,3.45-3.76,3.96C47.63,160.11,47.26,160.3,47.26,160.02z M51.83,154.06c1.14-1.22,1.8-2.43,1.8-3.28v-0.61
		l-1.22,0.12l-1.22,0.12l-0.66,1.99C49.6,155.22,50.12,155.89,51.83,154.06z M65.86,115.83c-0.38-0.38-0.7,0.19-0.38,0.7l0.29,0.48
		l0.16-0.47C66.01,116.27,65.98,115.95,65.86,115.83L65.86,115.83z M66,112.52c0-0.54-0.16-0.86-0.37-0.73
		c-0.21,0.13-0.37,0.56-0.37,0.96s0.17,0.73,0.37,0.73S66,113.05,66,112.52z M68.08,111.13c0.16-0.86,0.11-1.41-0.11-1.41
		c-0.42,0-0.82,1.25-0.83,2.61C67.13,113.65,67.76,112.84,68.08,111.13z M72.37,103.84c0.01,0.43,1.51-0.44,1.51-0.87
		c0-0.2,0.34-0.7,0.75-1.11c0.76-0.76,0.92-1.77,0.52-3.24l-0.21-0.8l-1.47,0.96c-0.81,0.53-1.47,1.23-1.47,1.56
		s-0.34,0.89-0.75,1.24c-0.47,0.4-0.75,1.11-0.75,1.9c0,0.69,0.12,1.37,0.27,1.52s0.56-0.12,0.93-0.59
		C72.06,103.93,72.36,103.67,72.37,103.84L72.37,103.84z"/>
</g>
</svg>
